<?xml version="1.0" encoding="utf-8"?>
<!-- Generator: Adobe Illustrator 21.0.2, SVG Export Plug-In . SVG Version: 6.00 Build 0)  -->
<svg version="1.1" id="Layer_1" xmlns="http://www.w3.org/2000/svg" xmlns:xlink="http://www.w3.org/1999/xlink" x="0px" y="0px"
	 viewBox="0 0 864 864" style="enable-background:new 0 0 864 864;" xml:space="preserve">
<style type="text/css">
	.st0{fill:#D1A8E0;}
	.st1{fill:#58CABF;}
	.st2{fill:#FDBE1B;}
	.st3{fill:#00BBC4;}
	.st4{fill:#F46953;}
	.st5{fill:#9ADBE0;}
	.st6{fill:#F9ADBE;}
	.st7{fill:#A7D9B8;}
	.st8{fill:#A4C2E1;}
	.st9{fill:#F07248;}
</style>
<g>
	<path class="st0" d="M127.1,653.9c0,1.5,0,3.2-0.3,5.2c-0.3,1.7-0.5,5.1-0.6,7.5c0,1.1-0.2,2.2-0.2,2.2c-0.3,1.8-3.2,2-4.9,1.8
		c-1.5-0.2-5.7-0.2-10.6-0.3c-6.3-0.2-13.4-0.3-16-0.5c-4.6-0.3-8.9-0.5-13.7-0.5c-1.8,0-3.8,0-6,0c-0.9,0-6.3-0.5-7.2-0.6
		c-0.8-0.2-0.9-0.3-0.9-0.3s0-0.2-0.2-0.9c-0.5-4.2-0.3-8.8,0.5-14.3c0.2-1.2,0.6-2.3,1.5-3.5c2-2.5,3.7-4.2,5.5-5.5
		c3.5-2.6,6.3-6,8.9-9.2l0.5-0.5c2.2-2.6,4.3-5.2,6.6-7.5c4.9-5.1,8.9-10.9,12-17.7c1.4-2.9,1.7-6.2,1.1-9.8
		c-0.5-3.4-2.2-5.1-5.7-5.7c-2.9-0.6-6.3-1.1-9.5,0.9c-0.9,0.5-6.6,5.4-8.3,7.1c-0.6,0.6-1.2,1.1-1.4,1.1c0,0-0.5,0-0.8-0.2
		c-1.4-0.3-2.3-0.8-3.1-1.8c-2.5-2.8-4.6-6-6-9.2c-0.8-1.5-0.6-2.6,0.3-3.8l0.5-0.6c0.6-0.8,1.5-1.8,2.5-3.1c1.5-2.5,7.7-6,9.8-7.2
		c3.2-1.8,6.6-3.8,10.5-3.8c0,0,0.3,0,0.6-0.2c12.5-1.7,19.2,1.2,22.9,4c4.6,3.1,7.1,7.2,7.5,12.5c0.6,8.3-0.5,15.7-3.7,22.6
		c-0.3,0.6-0.5,1.1-0.8,1.7c-0.5,1.1-0.9,2.2-1.4,3.1c-0.2,0.5-0.5,1.1-0.8,1.8c-0.8,1.4-1.8,3.7-2.2,4.3c-0.6,0.9-2,3.4-3.5,6.3
		c-1.8,3.2-4,7.4-4.6,8.2c-0.9,1.1-1.7,2.3-2.3,3.4c-1.2,1.8-2.3,3.5-3.8,4.9c-0.9,0.9-1.1,2.2-0.5,3.1c0.5,0.5,1.2,0.8,1.8,0.9
		c1.2,0,2.5,0,3.7,0h0.9c0.6,0,1.1,0,1.7,0h0.8c1.4,0,2.8-0.2,4.2-0.2c3.1,0,6.3-0.2,9.4-0.5c2-0.2,3.2,0.2,4,0.8
		C126.6,650.5,126.9,651.9,127.1,653.9z"/>
	<path class="st1" d="M146.2,597.9c0.1,2,0,3.9,0.1,5.9c0.1,1.8,0.3,11.7,0.3,12.9c0,1.1,0,2.2,0.1,3.2c0,1-0.3,1.9-0.7,2.8
		c-0.2,0.5-0.6,0.9-1.4,1c-2.9,0.3-4.8,0.2-7-0.4c-0.4-0.1-0.8-0.3-1.2-0.4c-0.4-0.2-0.7-0.5-0.8-1c0-0.3,0.2-6.2,0.3-6.5
		c0-1.8,0.5-11.9,0.3-17.8c-0.2-2.4-0.5-13.5-0.4-15.3c0-1.3,0.1-2.6,0-3.9c-0.2-1.7-0.2-3.4-0.2-5.2c0-1.3,0-2.8,0-4.2
		c-0.1-0.9,0.1-1.8,0.3-2.7c0.1-0.4,0.4-0.8,0.9-0.9c0.8-0.4,1.7-0.6,2.6-0.6c2,0,3.9,0,5.8,0c0.4,0,0.9,0,1.3,0.1
		c1.7,0.4,2.1,5.6,2.8,7.8c0.9,2.3,1.7,4.7,2.3,7.1c0.4,1.6,4.5,15.2,5.2,17.5c0.3,0.8,0.5,1.5,1,2.6c0.7,0.8,0.4-3.8,0.3-7.5
		c0.1-1.4,0-2.9,0.1-5.9c0.1-1.5-0.1-5.9,0-7.4c0-2.1-0.3-3.4-0.3-5.6c0-2.5,0-3.8,0-5.6c0-0.4,0-0.8,0.1-1.2c0-0.6,0.3-1.3,2.2-1.4
		c1-0.3,4.4-0.5,6-0.4c1.7,0,2.4,1.1,2.3,2.2c-0.4,2.3-0.5,4.7-0.5,7c0.1,6.6-0.3,11.1-0.3,17.8c0,1.2-0.4,9.7-0.4,10.9
		c0,2.7,0.2,6.6,0,10.8c0.2,3,0.1,8.3-0.2,9.1c-0.3,0.8-1.6,1.1-2.6,1.1c-0.3,0.1-1.3,0.1-1.4,0.2c-2.3,0.1-3,0-5.3-0.4
		c-0.5-0.1-1.1-0.2-1.5-0.4c-0.9-0.4-1.4-0.9-1.5-1.8c-0.2-2.8-1.3-5.5-1.8-8.2c-0.8-5.3-2.8-10.3-4.1-15.5
		c-0.5-2.2-1.5-4.2-2.3-6.4C145.5,590.4,146.1,595.6,146.2,597.9z"/>
	<path class="st2" d="M173.5,583.7c0.2-1.2,0.4-12.6,0.5-13.5c0.1-1.1,0.2-2.2,0.3-3.3c0.1-0.4,0.1-0.6,0.2-1
		c0.2-0.3,0.4-0.4,0.8-0.5c0.9,0,4.9,0.3,6.8,1.1c0.5,0.2,2.3,0.9,5.4,2.5c3.2,1.9,4.8,4.1,6.3,6c2.1,2.5,2.9,4.1,3.9,7.4
		c0.8,2.5,1.5,10.5,1.6,11.8c0.2,2.8-0.3,5.6-0.8,8.2c-0.3,1.4-0.7,2.9-1.2,4.3c-0.5,1.8-1.7,4-3.1,6.4c-2.4,3.2-3.1,3.9-5.6,6
		c-2.5,1.5-5.9,3.9-9.2,4.4c-2.9,0.2-5.2,0.4-5.1-0.1c-0.9-0.6-0.8-4.9-0.8-5.2c-0.3-6.1,0.1-15.7,0.1-17.8
		C173.4,596.9,173.3,584.6,173.5,583.7z"/>
</g>
<path class="st3" d="M325.9,406.7c-0.2,3.1-0.4,12-0.4,15.1c0.2,2.5,0.6,13.9,0.6,16.4c0,1,0.2,4.8-0.6,7.2c0,5.6-17.6,4.6-27.1,3.1
	c-11.8-1.9-24.6-11.4-31.5-20.3c-12.6-15.9-15.3-32.5-15.3-43.7c-0.4-6.8,0.2-12.6,0.6-16.4c0-0.6,0.2-1.2,0.2-1.7
	c0.4-4.3,1.4-8.5,2.3-12.6c0.2-1.2,0.6-2.7,0.8-4.1c1-4.8,2.3-9.3,4.3-14.5c2.5-6.2,5.2-11.2,8.1-15.5c6.6-9.7,12.6-16.2,18.4-19.7
	l2.9-1.9c8.5-5.6,12-8.1,21.1-9.3c7-1.2,9.3,1,10.1,3.3c0.2,0.2,0.2,0.4,0.4,0.8c1,2.3,3.1,6.4,1,13.3v0.2c-2.1,3.3-2.3,3.5-8.3,5.8
	c-2.3,0.8-3.1,1.2-4.1,1.9c-0.8,0.4-1.7,0.8-3.1,1.7c-8.7,4.3-15.5,11.6-22.4,23.6c-1.4,2.5-2.7,5-3.7,7.2c-4.1,9.3-6.2,17.8-6,26.1
	c0,0.8,0,1.7-0.2,2.5c0,0.4,0,1,0,1.7c0,5,2.5,18,3.5,20.9c2.7,9.5,5.4,14.9,12.4,20.5c4.6,3.9,7.2,5.2,9.9,6.4l0.8,0.4
	c1.2,0.6,3.1,0.8,5,0.8c0.6-10.8,1.4-30,1.9-35.8c0.2-0.6,0.2-1,0-1.7c-0.2-2.3-0.2-3.5-4.1-3.7c-3.1,0.2-1.9,0.2-5,0.2
	c-0.6,0-2.1,0.2-2.9,0.2c-3.9-0.4-7.5-0.4-7.2-5.2c0-4.3,0-5,0-7.7c0-2.3,0-5.4,1.9-7.2c1.9-1.7,5.2-1,9.3-0.4
	c9.7,0.4,12.6,0,21.9,0.6c4.6,0.4,5.6,5,5.2,9.5C325.7,383.7,326.1,403.4,325.9,406.7z"/>
<path class="st2" d="M364.2,439c0.4,7.2,0.4,7.9-4.1,8.7c-5.8,1-8.5,0.6-13.3,0.4c-2.5,0-3.7,0-5-0.8c-1.2-0.8-2.1-2.5-2.1-4.1
	c-0.2-1-0.2-2.3-0.2-3.3c0.2-6-0.4-11.6,0-17.4c0.6-9.5,0.2-19-0.2-28.6c-0.2-6.2,0.2-12.4,0.6-18.6c0.2-5.4,0.6-11,0.4-16.4
	c-0.2-3.3-0.4-6.8-0.4-11.2c-0.2-5.6-0.4-12,0-18.6c0.2-4.1-0.4-8.3-0.4-12.4c-0.2-6-0.4-12.2,0-18.2c0.2-2.3,0.8-4.3,1.4-6.6
	c0.4-1.7,1.7-2.5,3.3-2.7c1.9-0.2,3.7-0.2,5.6-0.2c2.5,0,5,0.2,7.5,0.2c3.1,0.2,3.9,1.2,4.6,3.9c1.4,6,1.2,12,1.4,17.8
	c0.2,4.1,0.4,5.8,0,9.5c0,1,0,7,0.2,8.3c0.6,9.3,0,16.1-0.2,25.3c-0.2,3.5-0.2,7-0.4,10.4c-0.6,7.5,0,14.7-0.4,22.2
	c0,3.7,0,6.4,0.4,11.2c0.2,3.3,0,6,0,9.1C363.3,417.4,363.8,428.2,364.2,439z"/>
<path class="st4" d="M414.1,318.7c-0.6,5.8-2.7,11.2-5.4,16.4c-1.7,3.1-4.3,5.6-6.8,8.1c-6.6,6-14.7,8.7-23.6,8.9
	c-2.3,0.2-4.6-0.2-6.6-1c-2.3-0.8-3.7-2.3-3.7-5c0-2.9-0.2-5.6-0.2-8.5c-0.2-3.7-0.4-7.2,0-11c0.2-2.3,0-4.8-0.2-7.2
	c0-5.6-0.2-11.2-0.4-16.8c-0.2-2.7,0.2-5.4,0.6-8.1c0.4-3.1,1.2-3.7,4.3-4.1c3.7-0.4,7.7-1.2,11.4-1.2c5.4-0.4,10.4,0.4,15.1,3.1
	c3.7,1.9,7,4.1,9.7,7.2C413,305,414.9,311.4,414.1,318.7z"/>
<path class="st5" d="M411,442.3c0.4,3.3-0.2,3.7-3.1,4.6c-2.9,1-6.8,1-9.9,1.2c-2.7,0-6,0.4-8.7-0.2c-3.9-0.8-4.3-1.4-5-6.4
	c-0.2-2.9-0.6-6-1-8.9c-1.4-8.1-2.7-15.9-4.1-24c-0.8-5.2-1.7-10.1-2.5-15.1c-0.6-3.5-1.7-6.8-2.5-10.1c-1.9-8.1-2.7-16.1-4.6-24.2
	c-0.6-2.3,1-4.3,3.7-4.6c2.3,0,4.3,0,6.6,0c2.1,0,3.9,0.2,6,0.2c1,0,2.3,0.2,3.3,0.6c1.7,0.4,2.7,1.7,3.3,3.5
	c2.5,10.6,4.6,21.3,6.4,32.3c0.6,3.9,1.7,7.9,2.7,11.8c2.1,10.4,5.2,20.3,7.9,30.2C410.3,436.3,410.6,438.4,411,442.3z"/>
<path class="st1" d="M495.9,365.5c-0.2,12.6-0.8,25.3-1.4,37.9c0,2.1-0.4,4.3-0.4,6.4c-0.4,8.1-0.6,13-1,21.1c0,0.4,0.6,6.6-3.3,6.8
	c-8.3,0.6-20.1-0.8-19.7-8.1c0-1.9,0.2-3.7,0.4-5.8c-3.5,0-7.5-0.4-9.9-0.6c-6.2,0.2-17.8-2.7-18.4-2.9c-8.5-2.9-13.3-8.3-16.8-14.1
	c-3.3-5.6-3.9-12-2.9-19.9c0.8-6.2,3.5-10.6,7.7-14.7c2.3-2.3,7.7-5.8,9.9-6.8c6.2-3.1,11.2-3.3,19.9-4.3c7-0.4,10.6-0.8,15.3-0.4
	c0-1,0.2-2.1,0.2-3.1c0.4-6-0.6-15.1-2.3-20.7c-0.8-2.3-1-3.7-2.7-7c-2.1-3.3-3.7-5.2-7.2-5c-5.2,0.2-7.7,7-8.3,8.7
	c-1.4,3.3-2.3,8.1-2.7,12.6c-0.6,3.9-1,6.6-12.2,5.6c-9.5-0.8-8.5-8.3-8.3-12.4c0-1.2,0.2-2.3,0.4-3.5c1-9.5,3.7-15.5,5.6-18.8
	c1.9-3.3,3.5-4.8,4.8-6.2c4.3-4.1,8.1-7.5,13.7-8.7c7.2-1.4,14.1-0.8,20.5,2.9c1.4,0.8,2.9,1.7,4.3,2.7c4.3,2.5,7,6.2,9.1,11
	c3.3,7.7,4.6,15.9,5.6,24.4C496.3,350.2,496.1,357.8,495.9,365.5z"/>
<path class="st6" d="M509.5,341.5c0.4-3.1,1.4-37.5,1.4-39.8c0.2-2.9,0.6-6.2,0.8-9.1c0-0.8,0.2-1.9,0.4-2.5c0.2-1,0.8-1.4,1.9-1.7
	c2.1,0,11.6,0.6,15.9,2.9c1.2,0.6,5.6,2.5,12.4,6.8c7.7,5.2,11.4,11.2,14.9,16.4c4.8,7,6.6,11.2,9.1,20.3c2.1,6.8,3.5,28.6,3.7,32.3
	c0.6,7.5-0.6,14.9-1.9,22.4c-0.6,3.9-1.7,7.7-2.7,11.6c-1.2,4.8-3.9,11.2-7.5,17.2c-5.4,8.9-7.2,11-13.3,16.4
	c-5.8,4.3-13.9,10.8-21.3,12.2c-6,1.4-12.2,1.2-12.2-0.4c-1.7-4.8-1.7-21.3-1.7-21.9c-0.6-16.8,0-32.3,0-38.1
	C509.5,376.9,509.1,343.9,509.5,341.5z"/>
<path class="st7" d="M605.6,354.5c-0.2,1-0.2,2.3-0.2,3.3c0,4.1,0,8.3,0,12.2c0.2,4.6,0.6,13.9,0.6,19.9c-0.4,3.7-0.4,7.9-0.6,10.1
	c0,4.6-0.2,9.1-0.4,13.5c0,2.3-0.2,4.6-0.2,6.8c-0.2,6.8,0,13.5,0,20.3c0,1.2,0,2.3-0.2,3.3c0,1.4-0.8,2.5-2.1,2.9
	c-1,0.2-2.1,0.4-2.9,0.6c-2.7,0.2-5.4,0.4-8.1,0.6c-1.9,0-3.7-0.2-5.4-0.4c-1.4-0.2-2.1-1-2.1-2.5c-0.2-0.8,0-1.9,0-2.9
	c0-6.4,0-12.6,0-19c0-17,0-34.2,0-51.1c0-1.4,0.2-2.9,0.4-4.3c0-2.1,0.2-4.1,0.2-6.2c0.2-3.5,0.2-10.6,0.2-10.6
	c0-5.2,0-10.6-0.4-15.7c-0.4-6-1.2-12-1.2-18c-0.2-7.5,0.4-14.9-1-22.4c0-0.4,0-0.6,0-0.8c-0.2-2.3,0.4-3.1,2.7-3.3
	c2.1-0.4,3.9-0.6,6-0.6c3.7-0.4,7.2,0.4,11,0.8c1.4,0.2,2.1,1,2.1,2.7c0.2,3.5,0.4,7,0.6,10.6c0,2.5,0.2,4.8,0.4,7.2
	c0.4,2.1,0.4,4.3,0.4,6.6c-0.2,5.8-0.2,11.6,0.2,17.4C606,341.9,606.4,348.1,605.6,354.5z"/>
<path class="st8" d="M608.3,308.1c-0.2-2.9-0.4-5.8-0.4-8.7c0-6,1.2-7.5,7.2-7.9c1.9,0,3.5,0,5.2-0.2c4.8-0.8,9.5-0.8,14.3-0.4
	c1.2,0.2,2.5,0,3.7,0.2c5.6,0.2,6.2,1.7,7,5.6c0,0.6,0.2,1.2,0.2,2.1c0,2.7,0,5.2,0,7.9c-0.2,1-0.2,2.3-0.4,3.5s-0.8,2.1-2.1,2.5
	c-3.3,1-6.8,1.7-10.1,1.4c-3.5-0.2-6.8,0-10.6-0.4c-1.4,0-3.1,0-5,0c-1.4,0-3.1,0-4.6-0.4C609.5,312.9,608.3,311.4,608.3,308.1z"/>
<path class="st3" d="M645.5,431.9c0,2.5,0,5.2,0,7.9c-0.2,1-0.2,2.3-0.4,3.3c-0.2,1.2-0.8,2.3-2.1,2.5c-3.3,1-6.8,1.9-10.1,1.7
	c-3.5-0.2-6.8,0-10.6-0.4c-1.4,0-3.1,0-5,0c-1.4,0-3.1,0-4.6-0.4c-3.3-0.6-4.6-2.1-4.6-5.2c-0.2-2.9-0.4-6-0.4-8.9
	c0-5.8,1.2-7.2,7.2-7.7c1.9,0,3.5,0,5.2-0.4c4.8-0.6,9.5-0.6,14.3-0.2c1.2,0,2.5,0,3.7,0c5.6,0.4,6.2,1.9,7,5.6
	C645.3,430.5,645.5,431.1,645.5,431.9z"/>
<path class="st9" d="M641.2,360.9c0.2,0.8,0.2,1.4,0.2,2.3c-0.2,4.8-0.4,9.5-0.8,14.3c-0.4,2.7-1.4,3.7-3.9,3.3
	c-5.6-0.6-11-0.8-16.6-0.8c-2.5,0-5-0.6-7.5-1c-2.1,0-3.1-1.2-3.3-3.3c-0.4-3.5-0.8-7.2-1-10.8c0-0.6,0-1.2,0-1.9
	c0.4-2.3,1.4-3.9,3.9-4.6c2.7-0.8,5.6-1.4,8.3-1c3.1,0.2,6.2,0.2,9.3,0.2c0.8,0,1.7,0,2.5,0c1,0,2.1,0,2.9,0c0.8,0,1.7,0,2.5,0
	C639.7,358,640.8,359.1,641.2,360.9z"/>
<path class="st0" d="M427.6,195.6c-0.2,1.9,0,35.2-0.6,40.4c-0.2,1.6-0.2,8.2-0.2,9.7c-0.6,4.9-0.4,9.7-0.2,14.6
	c0,1.9-0.2,3.9-0.6,5.8c-0.2,1.2-0.8,1.9-1.8,2.1c-7,1.9-13.8,2.3-20.8,0.4c-3.3-0.8-4.1-2.7-3.1-6.2c0.6-1.9,0.8-3.9,0.8-6
	c0.4-7.2,1-14.2,1.4-21.4c0.4-4.3,0.6-8.8,1-13c0.4-3.9,0.4-31.3,0.4-33.6c0-3.7,0-7.2,0.2-10.9c0-1.6,0-3.1,0.2-4.7
	c0-0.8,0-1.7-0.2-2.7c0-0.6-0.4-1.2-1-1.4c-0.8-0.4-1.4,0-1.7,0.6c-1.8,2.1-4.1,3.9-6.2,5.8c-2.9,2.9-4.9,3.5-9.1,0.4
	c-2.5-1.8-4.9-3.9-7.2-5.8c-1.6-1.4-2.3-3.1-2.5-5.1c-0.2-2.3-0.4-4.7,1.2-6.8c0.4-0.6,5.6-6.2,7.4-8.8c4.3-6,8.4-12.3,13.2-17.9
	c1.4-1.8,6.4-9.7,7.8-9.9c3.1-0.2,6-0.4,8.9,0c3.3,0.4,6.4,1,9.7,1.6c2.3,0.4,2.9,1,3.3,3.5c0.2,2.3,0.2,4.7,0.2,7
	c0,0.6,0,1.4,0,1.9h0.2C428,137.5,427.8,192.5,427.6,195.6z"/>
<path class="st1" d="M460.5,142.4c0.1-1.8,0.3-2.2,0.2-4.3c0-1.5-0.2-3.5-0.5-3.9c-0.5-1-0.9-2-2.2-2.8c-1.4-1.1-4.5-0.8-6.2,1
	c-1.5,1.5-1.2,5.8-1,7.6c0.5,2.7,1.4,5.2,2.9,7.5c1.5,2.2,3.2,4.3,4.6,6.6c1,1.4,1.9,2.7,2.7,4.2c2.2,2.8,3.1,4.2,4.6,6.2
	c4.6,6,7.5,12.7,8,20.2c0.1,1.8,0.1,3.6,0,5.4c-0.3,4.5-2.4,8.2-5.8,11.1c-0.6,0.5-1,0.9-1.6,1.4c-2.3,1.6-4.6,2.6-7.5,2.6
	c-2.9,0-5.8,0-8.5-0.8c-2-0.6-3.4-1.5-5.3-3.1c-1.5-1.5-3.2-2.7-4.2-4.5c-0.3-0.6-0.7-1.1-0.9-1.7c-1.1-3.1-2-6.1-2-9.5
	c-0.1-3.3,0.7-8.6,0.9-9.3c0.6-1.1,1.5-1.7,2.7-1.7c0.3,0,0.8,0,1.1,0c2.2,0.5,4.2,1,6.2,1.7c1.5,0.6,1.7,1,1.6,2.5
	c-0.2,1.9-0.5,4.1-0.5,6.5c0.3,2.8,0.3,5,1.9,6.5c1.6,1.2,4.6,2.2,7.1,0.5c1.6-1.1,2.7-3.6,2.8-5.8c0.1-2.5-0.9-5.6-2-7.7
	c-1.4-2.5-2.7-5-4.5-7.4c-1.5-2.2-2.8-4.4-4.1-6.7c-1-1.7-1.9-3.4-3.2-5c-2-2.9-3.2-4.9-4.4-7.5c-0.3-0.7-0.7-1.5-1.1-2
	c-2.8-4.2-3.9-9-4.1-13.8c-0.2-2.9,0-5.7,0.8-8.4c0.6-2,1.7-3.7,3.3-5.1c2.5-1.9,5.2-2.9,8.3-3.4c4.8-0.8,10.1-0.1,14.2,2.3
	c2.3,1.6,4.1,3.5,5.3,6.3c0.8,1.8,1.1,3.7,1.4,5.8c0.1,2.2,0.2,1.8,0.2,4.9c0,0.2,0.1,2.2,0,2.4c0,2.8-1.2,4-4.2,3.9
	c-0.8,0-5.2-0.2-6-0.5C460.7,144.1,460.4,143.7,460.5,142.4z"/>
<path class="st2" d="M520.1,135.8c0,1-0.5,1.4-3.1,1.7c-2.2,0.3-4.3,0.5-6.5,0.3c-1.5-0.1-3.1-0.1-4.5-0.1c0,0.8,0,1.6,0,2.3
	c0.1,1.8,0.1,3.5,0,5.2c-0.2,2.4-0.1,4.8-0.2,7.1c-0.1,0.7,0,1.4,0.1,1.9c0.2,2.4,0.2,3.3,0.2,4.9c0,1.7-0.1,3.5,0.1,5.2
	c0.1,2.8,0.1,4.6-0.1,6.9c-0.2,2.6-0.2,5.3-0.6,7.9c-0.2,1.9-0.2,3.9-0.2,5.8c0.1,4.2,0,8.5-0.5,12.7c-0.1,0.9-0.3,1.2-1.2,1.4
	c-3.3,0.7-6.5,0.7-9.6,0.1c-0.8-0.1-1.2-0.6-1.4-1.1c0-0.6,0-1.1,0-1.8c-0.1-2.3,0-4.6-0.1-6.9c-0.3-4.1-0.3-8.2-0.1-12.1
	c0.2-4.4,0.3-8.7,0.2-13.2c0-2.2-0.2-4.4-0.3-6.6c-0.1-3.2-0.2-6.3,0-9.4c0.1-0.5,0.1-0.9,0.1-1.4c-0.2-2.7-0.2-5.4-0.2-8.5
	c-2.4,0.1-4.8,0.1-7.1,0.1c-3.3,0-3.9,0-5-1.2c-0.3-0.3-0.6-0.7-0.8-1c-1-2.4-1.5-4.8-1.2-7.3c0.2-1.2,0.9-1.6,3.5-2.2
	c2.2-0.3,4.3-0.3,6.5-0.5c5-0.2,10-0.1,14.9-0.2c4.1-0.1,8,0,12.1,0c2,0,3.4,0.5,4.1,1.2c0.2,0.3,0.5,0.6,0.5,0.9
	C519.7,129.5,520,134.6,520.1,135.8z"/>
<g>
	<path class="st6" d="M516.4,223c-4,0-32.2,0.7-39.7,0.9c-3.5,0.2-11.2-0.1-11.2-0.1c-7.7-0.2-12.7,0-20.7,0.5c-1,0-2,0.3-3.2,0.4
		c-0.7,0.2-1.7,0.2-2.5-0.1c-1-0.3-1.5-0.8-1.8-1.7c-0.8-3.2-0.7-6.4-0.2-9.6c0.2-0.9,0.7-1.4,1.7-1.5c2-0.4,4.7-0.5,7-0.5
		c6,0.1,12.2,0.2,18.2,0.2c2.7,0,5.5,0.1,8,0.1c4,0.1,7.7-0.1,11.5-0.3c3.7-0.2,21-0.5,25.2-0.5c1.7,0.1,3.7-0.1,5.5-0.1
		c1,0,2,0.2,3,0.3c1,0.1,1.5,0.5,1.8,1.3c0,0.5,0.3,0.9,0.3,1.4c0.3,2.4,0.1,4.8-0.1,7.1C518.9,222.5,518.2,222.9,516.4,223z"/>
</g>
<g>
	<path class="st6" d="M197.4,642.3c-3.3,0-26.7,0.6-32.9,0.7c-2.9,0.2-9.3,0-9.3,0c-6.4-0.1-10.5,0-17.2,0.4c-0.8,0-1.6,0.2-2.7,0.3
		c-0.6,0.2-1.4,0.1-2.1,0c-0.8-0.2-1.3-0.6-1.5-1.2c-0.7-2.3-0.5-4.8-0.2-7.2c0.2-0.7,0.6-1,1.4-1.1c1.6-0.3,3.9-0.3,5.8-0.4
		c5,0,10.1,0.1,15.1,0.1c2.3,0,4.6,0.1,6.6,0.1c3.3,0.1,6.4-0.1,9.5-0.2c3.1-0.2,17.4-0.4,20.9-0.4c1.4,0,3.1-0.1,4.5-0.1
		c0.8,0,1.7,0.1,2.5,0.2c0.8,0.1,1.3,0.4,1.5,1c0,0.3,0.2,0.7,0.2,1c0.2,1.8,0.1,3.5-0.1,5.3C199.5,641.9,198.8,642.2,197.4,642.3z"
		/>
</g>
<g>
	<path class="st0" d="M77.2,815.3c-1.2-0.2-2.5-0.5-3.4-1.1c-1.4-1.1-2-2.2-1.7-3.7c0.8-3.8,0.8-12.5,0.8-12.9
		c0.3-1.8,1.2-2.6,3.2-2.6c1.8,0,9.5,1.7,16.5-0.2c2.2-1.1,4.3-2.2,6.6-3.2c4.2-2.2,6.2-6.6,4.8-11.1c-1.4-4.3-3.8-7.5-8-9.7
		c-6.2-2.9-6.9-3.2-13.7-4c-0.8,0-1.5,0-2.2,0c-1.8,0-2.8-0.6-3.1-2.3c0-0.8,0-1.5,0-2.2c0-0.9,0.8-9.7,1.2-13.1
		c0.2-1.2,0.9-1.8,2.2-2.2c3.8-0.6,7.7-1.4,11.5-2.2c3.1-0.6,5.4-2.5,7.2-4.9c1.7-2.2,2.2-4.6,1.2-7.5c-1.2-4.3-3.8-7.4-8-8.8
		c-2-0.8-4-1.4-6-1.8c-0.8-0.3-1.7-0.3-2.6-0.5c-1.1,0-2.2-0.2-3.1-0.3c-7.2,0.5-5.2-12.5-5.5-17.7c-0.2-2.2,0-2.5,2-3.1
		c0.8-0.2,1.7-0.3,2.5-0.5c0.8,0,5.5,0.3,6.9,0.3c5.8,0,11.4,1.8,16.9,3.7c2.9,0.9,5.4,3.1,7.4,5.4c4,4.8,6.8,10.3,8.8,16
		c0.2,0.3,0.2,0.5,0.2,0.6c1.7,8.6,0.2,16.5-5.5,23.4c-1.4,1.5-2.6,3.2-3.8,4.8c-0.8,0.9-0.8,1.4,0.3,2c1.5,1.1,2.9,2.3,4.2,3.5
		c5.8,5.7,8.9,12.6,9.1,20.8c0.2,2.8-0.2,5.4-0.5,8c-0.2,2-0.9,3.7-1.8,5.5c-0.8,1.7-1.7,3.2-2.5,4.9c-0.9,1.8-8.9,10-18.2,14.2
		c-2.8,1.4-5.8,2-8.9,2.3c-1.5,0.2-3.2,0.2-4.6,0.2C84,815.8,80.6,815.6,77.2,815.3z"/>
	<path class="st1" d="M159.8,760.1c-1.3,0.3-3,0.4-4.4,0.4c-1.2,0.1-2.6,0.2-3.8,0c-1.6-0.3-1.8-0.4-2.1-2.2c-0.1-1-0.3-2-0.4-3
		c-0.6-2.8-1.2-5.5-1.8-8.2c-0.4-1.7-0.7-3.4-1.1-5.1c-0.3-1.2-0.7-2.3-1.1-3.5c-0.4-1.3-0.7-2.8-1-4.2c-0.4,0-0.8,0.1-1.3,0.1
		c-0.7,0-1.3,0-2-0.1c0,1.2,0,2.4,0,3.7c-0.1,1.3-0.1,2.4,0.1,4.1c0.1,1.2,0,2.2,0.1,3.3c0.1,3.9,0.4,7.9,0.4,11.8
		c0.2,2.7,0.2,3-1.8,3.1c-2.5,0.4-3.7,0.4-5.7,0.3c-1.1-0.1-1.6-0.1-2.1-0.3c-0.6-0.4-1-1-1-1.6c0-0.4-0.1-0.8-0.1-1.2
		c0.1-2.2-0.2-4.3,0-6.4c0.3-3.5,0.1-7-0.1-10.5c-0.1-2.3,0.1-4.6,0.3-6.9c0.1-2,0.3-3.9,0.2-5.9c-0.1-1.3-0.2-2.5-0.2-4.1
		c-0.1-2.1-0.2-4.4,0-6.8c0.1-1.5-0.1-3-0.2-4.6c-0.1-2.2-0.2-4.5,0-6.7c0.1-0.8,0.4-1.5,0.6-2.3c0.3-0.6,0.7-1,1.4-1
		c0.8-0.1,1.6-0.2,2.4-0.2c1.1,0.1,2.2,0.1,3.2,0.2c1.3,0.1,1.7,0.4,2,1.4c0.3,1,0.4,1.9,0.4,2.9c1.5-0.2,3-0.4,4.5-0.4
		c2.7-0.1,5.2,0.2,7.6,1.3c1.8,0.9,3.5,1.9,4.8,3.3c2.4,2.4,3.4,5.3,3,8.5c-0.4,2.6-1.3,5-2.7,7.4c-0.8,1.4-2.2,2.5-3.5,3.6
		c-0.4,0.3-0.8,0.6-1.3,0.9c0.9,3.3,1.8,6.6,2.4,10c0.3,1.3,0.7,2.7,1.2,4c0.9,3.5,2.2,6.9,3.4,10.3c0.3,1.1,0.4,1.7,0.6,3.1
		C161.3,759.7,161.1,759.8,159.8,760.1z"/>
	<path class="st2" d="M166.5,720.7c0.2-1.2,0.4-12.6,0.5-13.5c0.1-1.1,0.2-2.2,0.3-3.3c0.1-0.4,0.1-0.6,0.2-1
		c0.2-0.3,0.4-0.4,0.8-0.5c0.9,0,4.9,0.3,6.8,1.1c0.5,0.2,2.3,0.9,5.4,2.5c3.2,1.9,4.8,4.1,6.3,6c2.1,2.5,2.9,4.1,3.9,7.4
		c0.8,2.5,1.5,10.5,1.6,11.8c0.2,2.8-0.3,5.6-0.8,8.2c-0.3,1.4-0.7,2.9-1.2,4.3c-0.5,1.8-1.7,4-3.1,6.4c-2.4,3.2-3.1,3.9-5.6,6
		c-2.5,1.5-5.9,3.9-9.2,4.4c-2.9,0.2-5.2,0.4-5.1-0.1c-0.9-0.6-0.8-4.9-0.8-5.2c-0.3-6.1,0.1-15.7,0.1-17.8
		C166.4,733.9,166.3,721.6,166.5,720.7z"/>
</g>
<g>
	<path class="st6" d="M193.4,776.5c-3.3,0-26.7,0.6-32.9,0.7c-2.9,0.2-9.3,0-9.3,0c-6.4-0.1-10.5,0-17.2,0.4c-0.8,0-1.6,0.2-2.7,0.3
		c-0.6,0.2-1.4,0.1-2.1,0c-0.8-0.2-1.3-0.6-1.5-1.2c-0.7-2.3-0.5-4.8-0.2-7.2c0.2-0.7,0.6-1,1.4-1.1c1.6-0.3,3.9-0.3,5.8-0.4
		c5,0,10.1,0.1,15.1,0.1c2.3,0,4.6,0.1,6.6,0.1c3.3,0.1,6.4-0.1,9.5-0.2c3.1-0.2,17.4-0.4,20.9-0.4c1.4,0,3.1-0.1,4.5-0.1
		c0.8,0,1.7,0.1,2.5,0.2c0.8,0.1,1.3,0.4,1.5,1c0,0.3,0.2,0.7,0.2,1c0.2,1.8,0.1,3.5-0.1,5.3C195.5,776.1,194.8,776.5,193.4,776.5z"
		/>
</g>
<g>
	<path class="st0" d="M330.8,613.2c0,0,0,0.2,0,0.3c0.2,3.5,0,10.8-0.2,17.8c-0.3,8.9-0.5,18.2-0.3,20.9c0.2,2.2,0.3,4.5-0.2,6.8
		c-0.5,2.5-0.6,5.1-0.8,7.2c-0.2,1.4-0.8,2-2,2.3c-1.4,0.3-2.6,0.5-3.8,0.6c-3.5,0.3-7.2-0.2-11.7-1.1c-0.6-0.3-1.2-0.6-1.7-2.3
		c-0.2-0.6,0-1.2,0-1.8c0.2-2.2,0.3-4.2,0.5-6.2c0.5-4,0.8-8.2,1.1-12.2c0.2-1.4,0.2-2.8,0.3-4.2c0.3-3.4,0.6-6.9,0.5-10.6
		c0-0.2,0-0.3,0-0.6s0-0.6,0-0.9c-0.2-2.8-1.1-3.7-3.8-3.7c-1.4,0-2.6,0-3.7,0.2c-4.6,0.6-23.8-0.3-25.8-0.8
		c-1.2-0.3-1.7-0.8-1.8-2.2c-0.2-2.9,0-5.7,0.8-8.6c0.2-0.8,0.3-1.2,0.6-1.7c0.5-0.6,0.9-1.4,1.4-2c1.4-2,2.6-3.8,4.3-5.5
		c1.7-1.7,3.2-3.4,4.3-5.1c2.3-3.5,19.7-22.9,23.5-26.5c1.8-2,3.5-2.6,6-2.6c1.2,0,2.9,0,4.6,0c3.4,0,7.5-0.2,9.4,0.5
		c0.8,0.3,0.9,0.6,0.9,0.9c-0.3,1.2-0.8,4.9-1.2,20.2l-0.2,1.5c-0.2,4.5-0.3,9.1-0.6,13.5L330.8,613.2z"/>
	<path class="st1" d="M371,571.9c0,0.8-0.4,1.1-2.4,1.3c-1.7,0.3-3.4,0.4-5.1,0.3c-1.2-0.1-2.4-0.1-3.6-0.1c0,0.6,0,1.3,0,1.8
		c0.1,1.4,0.1,2.8,0,4.1c-0.2,1.9-0.1,3.8-0.2,5.6c-0.1,0.5,0,1.1,0.1,1.5c0.2,1.9,0.2,2.6,0.2,3.9c0,1.3-0.1,2.8,0.1,4.1
		c0.1,2.2,0.1,3.7-0.1,5.5c-0.2,2.1-0.2,4.2-0.4,6.3c-0.2,1.5-0.2,3-0.2,4.6c0.1,3.3,0,6.7-0.4,10c-0.1,0.7-0.3,1-1,1.1
		c-2.6,0.5-5.1,0.5-7.6,0.1c-0.6-0.1-1-0.4-1.1-0.9c0-0.4,0-0.9,0-1.4c-0.1-1.8,0-3.7-0.1-5.5c-0.3-3.2-0.3-6.5-0.1-9.6
		c0.2-3.5,0.3-6.9,0.2-10.4c0-1.7-0.2-3.5-0.3-5.2c-0.1-2.5-0.2-5,0-7.4c0.1-0.4,0.1-0.7,0.1-1.1c-0.2-2.2-0.2-4.3-0.2-6.7
		c-1.9,0.1-3.8,0.1-5.6,0.1c-2.6,0-3,0-3.9-1c-0.3-0.3-0.4-0.5-0.6-0.8c-0.8-1.9-1.2-3.8-1-5.7c0.2-1,0.7-1.3,2.8-1.7
		c1.7-0.3,3.4-0.3,5.1-0.4c3.9-0.2,7.9-0.1,11.7-0.2c3.2-0.1,6.4,0,9.6,0c1.6,0,2.7,0.4,3.2,1c0.2,0.3,0.4,0.4,0.4,0.7
		C370.7,566.9,370.9,570.9,371,571.9z"/>
	<path class="st2" d="M409,575.4c0,3,0,5.9,0,8.9c0.1,1.4-0.2,2.9-0.3,4.2c-0.1,2-0.1,3.9-0.1,5.9c0,2.2,0.2,4.2,0.2,6.4
		c0,1.6,0.2,5.7,0.1,7.4c-0.3,2.4,0,10.7-1.6,12.6c-0.2,0.6-0.6,1-1.3,1.2c-2.3,0.4-4.8,0.8-7.2,0.3c-1.3-0.3-1.5-0.5-1.5-1.6
		c0-1.5,0.1-3,0.2-4.5c0.3-2.2,0.2-4.3,0.2-6.4c0-1.5,0.2-4.6,0.2-4.7c-0.1-2.2,0-4.2,0.1-6.3c-2.9,0-5.7-0.1-8.6-0.2
		c-0.9-0.1-1.8,0-2.7,0c-0.4,0.1-0.9,0.1-1.3,0.1c0,0.1,0,0.3,0,0.4c0,3.8-0.2,7.5,0.1,11.3c0.2,3,0.2,6.2,0.2,9.2
		c0,0.4-0.1,0.9-0.2,1.3c-0.2,0.8-0.8,1.3-1.8,1.3c-1.3,0.1-3.2,0.5-5.1,0.2c-0.9,0-1.2-0.2-2-0.2c-0.7-0.1-1-0.4-1.2-0.9
		c-0.2-0.8-0.2-2.2-0.2-3.8c0-1.3,0.1-2.5,0.1-3.5c-0.1-2.7,0.1-3.9,0-7.3c0-2.1,0.1-2.4,0-4.2c0-3.3,0.4-6.6,0.4-10
		c0-3.9-0.1-7.8,0.1-11.7c0.1-2.5-0.4-14.4-0.4-15.2c-0.2-1.8,0.8-1.8,2.2-2.1c1.4-0.3,2.9-0.2,4.3-0.2c1.3-0.1,3.1,0.1,4.2,0.6
		c0.5,0.3,0.8,0.8,0.8,1.3c-0.1,0.5-0.1,1-0.2,1.5c-0.4,2.1-0.4,9.5-0.4,10.5c-0.1,1.6-0.1,3.3-0.2,5c0,2.2,0.2,4.5,0,6.6
		c0,0.1-0.1,0.1-0.1,0.1c1.7,0,3.3-0.1,5,0c2.2,0,4.3-0.1,6.5-0.1c0.2-2.1,0.1-4.1,0.4-6.2c0.2-0.9,0.3-13.8,0.3-14.5
		c0.3-4.6,2.4-5,5.2-5.2c2-0.1,4.1-0.3,5.6,0.7c0.6,0.4,0.5,1.9,0.5,2.6C409.4,567.4,409,574.6,409,575.4z"/>
</g>
<g>
	<path class="st6" d="M408,638.1c-3.3,0-26.7,0.6-32.9,0.7c-2.9,0.2-9.3,0-9.3,0c-6.4-0.1-10.5,0-17.2,0.4c-0.8,0-1.6,0.2-2.7,0.3
		c-0.6,0.2-1.4,0.1-2.1,0c-0.8-0.2-1.3-0.6-1.5-1.2c-0.7-2.3-0.5-4.8-0.2-7.2c0.2-0.7,0.6-1,1.4-1.1c1.6-0.3,3.9-0.3,5.8-0.4
		c5,0,10.1,0.1,15.1,0.1c2.3,0,4.6,0.1,6.6,0.1c3.3,0.1,6.4-0.1,9.5-0.2c3.1-0.2,17.4-0.4,20.9-0.4c1.4,0,3.1-0.1,4.5-0.1
		c0.8,0,1.7,0.1,2.5,0.2c0.8,0.1,1.3,0.4,1.5,1c0,0.3,0.2,0.7,0.2,1c0.2,1.8,0.1,3.5-0.1,5.3C410,637.7,409.4,638.1,408,638.1z"/>
</g>
<g>
	<path class="st0" d="M334.8,784.5c-0.2,0.5-0.5,1.1-0.8,1.8c-0.5,0.6-0.8,1.4-1.2,2.2c-1.1,1.8-2.2,4-3.4,5.7
		c-1.7,2.6-3.4,4.5-5.4,5.7l-0.3,0.3c-2.3,1.5-4.6,3.2-6.9,4.3c-2,1.1-4.2,1.7-6.3,2.3c-0.8,0.3-1.5,0.5-2.2,0.8
		c-2.6,0.9-5.4,1.2-7.5,0.9l-2.2-0.2c-1.4-0.2-2.6-0.3-3.8-0.3c-3.1-0.3-6.2-1.1-9.7-2.6c-4.3-1.8-8-4.6-10.9-8.3
		c-0.3-0.3-0.3-0.5-0.3-0.5v-0.3l-0.3-0.3c-0.6-1.1-0.3-3.2,0.9-4.8c1.4-1.8,3.5-5.8,4.6-8.2c0.3-0.5,0.5-0.9,0.6-1.1
		c0.6-1.1,1.2-1.7,1.8-1.8c0.5,0,1.2,0.2,2.2,0.9c0.6,0.5,1.2,0.9,1.8,1.4l0.5,0.5c5.1,4.2,11.1,6.3,18,6.3c2,0,3.8-0.6,5.7-1.7
		c3.5-2.2,6.2-4.5,7.8-7.2c3.4-5.4,2.6-11.4-2.2-15.5c-2.6-2.5-6-4-9.8-4.3c-3.5-0.5-7.1,0-11.1,1.2c-2.6,0.9-5.2,1.4-8.5,2
		c-1.5,0.3-3.1,0.2-4.6-0.3c-0.5-0.2-0.8-0.5-0.8-0.9l-0.2-0.3c0-0.2,0-0.2,0-0.2c0.3-3.4,0-13.1-0.3-14.8
		c-0.5-2.6-1.2-28.8-0.5-32.8c0,0,0.2-0.2,0.2-0.3s0-0.3,0-0.6c0.6-2.3,1.5-3.1,3.8-2.9c1.2,0,4.5-0.3,7.2-0.5
		c1.7-0.2,3.5-0.3,3.8-0.3c1.1,0.2,1.5,0.8,1.7,1.8c0,2.3-0.8,23.5-1.2,29.1c0,0.2,0,0.3,0,0.5c-0.2,1.1,0,2.3,0.9,2.9
		c0.8,0.8,2,0.6,2.9,0.3c0.5-0.2,1.7-0.3,2.9-0.5c2-0.5,3.4-0.6,4-0.8c6.6-1.1,11.8-0.6,16.8,1.2c4,2,5.1,3.2,7.4,6.3
		c1.5,1.8,3.7,6.3,5.5,16.5l0.2,0.5C337,773.7,335.9,779.6,334.8,784.5z M299.6,726.2c-0.2-2.9-0.5-11.5-0.5-12.3
		c1.1-3.7,1.7-4,5.8-3.5c0.9,0.2,4.5,0,8.2-0.2c2.9,0,6-0.2,7.5-0.2h0.5c2,0,4.2,0.2,6.3-0.3c0.2,0,0.5,0,0.6,0c0.3,0,0.8,0,1.1,0.2
		c1.5,0.3,1.8,0.5,1.5,2.6c-0.3,2-0.5,5.1-0.6,7.7c-0.2,2.5-0.2,4.8-0.5,5.8c-0.2,0.3-0.3,0.9-1.4,1.1c-1.2,0.5-2.6,0.5-3.8,0.5
		h-1.8c-5.1,0-14.6,0-17.2,0.2c-1.1,0.2-2.3,0-3.5-0.2l-0.9-0.2C300.1,727.3,299.6,726.8,299.6,726.2z"/>
	<path class="st1" d="M375.2,711.7c0,0.8-0.4,1.1-2.4,1.3c-1.7,0.3-3.4,0.4-5.1,0.3c-1.2-0.1-2.4-0.1-3.6-0.1c0,0.6,0,1.3,0,1.8
		c0.1,1.4,0.1,2.8,0,4.1c-0.2,1.9-0.1,3.8-0.2,5.6c-0.1,0.5,0,1.1,0.1,1.5c0.2,1.9,0.2,2.6,0.2,3.9c0,1.3-0.1,2.8,0.1,4.1
		c0.1,2.2,0.1,3.7-0.1,5.5c-0.2,2.1-0.2,4.2-0.4,6.3c-0.2,1.5-0.2,3-0.2,4.6c0.1,3.3,0,6.7-0.4,10c-0.1,0.7-0.3,1-1,1.1
		c-2.6,0.5-5.1,0.5-7.6,0.1c-0.6-0.1-1-0.4-1.1-0.9c0-0.4,0-0.9,0-1.4c-0.1-1.8,0-3.7-0.1-5.5c-0.3-3.2-0.3-6.5-0.1-9.6
		c0.2-3.5,0.3-6.9,0.2-10.4c0-1.7-0.2-3.5-0.3-5.2c-0.1-2.5-0.2-5,0-7.4c0.1-0.4,0.1-0.7,0.1-1.1c-0.2-2.2-0.2-4.3-0.2-6.7
		c-1.9,0.1-3.8,0.1-5.6,0.1c-2.6,0-3,0-3.9-1c-0.3-0.3-0.4-0.5-0.6-0.8c-0.8-1.9-1.2-3.8-1-5.7c0.2-1,0.7-1.3,2.8-1.7
		c1.7-0.3,3.4-0.3,5.1-0.4c3.9-0.2,7.9-0.1,11.7-0.2c3.2-0.1,6.4,0,9.6,0c1.6,0,2.7,0.4,3.2,1c0.2,0.3,0.4,0.4,0.4,0.7
		C374.8,706.7,375.1,710.7,375.2,711.7z"/>
	<path class="st2" d="M413.1,715.2c0,3,0,5.9,0,8.9c0.1,1.4-0.2,2.9-0.3,4.2c-0.1,2-0.1,3.9-0.1,5.9c0,2.2,0.2,4.2,0.2,6.4
		c0,1.6,0.2,5.7,0.1,7.4c-0.3,2.4,0,10.7-1.6,12.6c-0.2,0.6-0.6,1-1.3,1.2c-2.3,0.4-4.8,0.8-7.2,0.3c-1.3-0.3-1.5-0.5-1.5-1.6
		c0-1.5,0.1-3,0.2-4.5c0.3-2.2,0.2-4.3,0.2-6.4c0-1.5,0.2-4.6,0.2-4.7c-0.1-2.2,0-4.2,0.1-6.3c-2.9,0-5.7-0.1-8.6-0.2
		c-0.9-0.1-1.8,0-2.7,0c-0.4,0.1-0.9,0.1-1.3,0.1c0,0.1,0,0.3,0,0.4c0,3.8-0.2,7.5,0.1,11.3c0.2,3,0.2,6.2,0.2,9.2
		c0,0.4-0.1,0.9-0.2,1.3c-0.2,0.8-0.8,1.3-1.8,1.3c-1.3,0.1-3.2,0.5-5.1,0.2c-0.9,0-1.2-0.2-2-0.2c-0.7-0.1-1-0.4-1.2-0.9
		c-0.2-0.8-0.2-2.2-0.2-3.8c0-1.3,0.1-2.5,0.1-3.5c-0.1-2.7,0.1-3.9,0-7.3c0-2.1,0.1-2.4,0-4.2c0-3.3,0.4-6.6,0.4-10
		c0-3.9-0.1-7.8,0.1-11.7c0.1-2.5-0.4-14.4-0.4-15.2c-0.2-1.8,0.8-1.8,2.2-2.1c1.4-0.3,2.9-0.2,4.3-0.2c1.3-0.1,3.1,0.1,4.2,0.6
		c0.5,0.3,0.8,0.8,0.8,1.3c-0.1,0.5-0.1,1-0.2,1.5c-0.4,2.1-0.4,9.5-0.4,10.5c-0.1,1.6-0.1,3.3-0.2,5c0,2.2,0.2,4.5,0,6.6
		c0,0.1-0.1,0.1-0.1,0.1c1.7,0,3.3-0.1,5,0c2.2,0,4.3-0.1,6.5-0.1c0.2-2.1,0.1-4.1,0.4-6.2c0.2-0.9,0.3-13.8,0.3-14.5
		c0.3-4.6,2.4-5,5.2-5.2c2-0.1,4.1-0.3,5.6,0.7c0.6,0.4,0.5,1.9,0.5,2.6C413.6,707.2,413.1,714.4,413.1,715.2z"/>
</g>
<g>
	<path class="st6" d="M408,777.9c-3.3,0-26.7,0.6-32.9,0.7c-2.9,0.2-9.3,0-9.3,0c-6.4-0.1-10.5,0-17.2,0.4c-0.8,0-1.6,0.2-2.7,0.3
		c-0.6,0.2-1.4,0.1-2.1,0c-0.8-0.2-1.3-0.6-1.5-1.2c-0.7-2.3-0.5-4.8-0.2-7.2c0.2-0.7,0.6-1,1.4-1.1c1.6-0.3,3.9-0.3,5.8-0.4
		c5,0,10.1,0.1,15.1,0.1c2.3,0,4.6,0.1,6.6,0.1c3.3,0.1,6.4-0.1,9.5-0.2c3.1-0.2,17.4-0.4,20.9-0.4c1.4,0,3.1-0.1,4.5-0.1
		c0.8,0,1.7,0.1,2.5,0.2c0.8,0.1,1.3,0.4,1.5,1c0,0.3,0.2,0.7,0.2,1c0.2,1.8,0.1,3.5-0.1,5.3C410,777.5,409.4,777.8,408,777.9z"/>
</g>
<g>
	<path class="st0" d="M488.6,570.6c0.6,0,1.2,0.2,1.7,0.2l0.2,0.2l0.2-0.2c2.2-0.2,4.2,0.2,6,0.5c0.6,0.2,1.2,0.2,2,0.3
		c2.2,0.3,4.2,1.4,6,2.6c0.6,0.3,1.2,0.9,1.8,1.5c1.5,1.8,1.8,2.9,1.1,4.5c-0.3,0.5-0.3,0.9-0.5,1.2c0,0.2,0,0.3-0.2,0.5
		c-1.2,2.6-2,5.2-2.9,8c-0.5,1.4-0.9,2.9-1.5,4.3c-0.2,0.6-0.3,0.8-0.3,0.8s-0.3,0-0.9-0.3c-0.3-0.2-0.6-0.3-0.9-0.5
		c-0.5-0.3-0.9-0.5-1.4-0.8c-2.2-0.9-4.2-1.2-6-1.2c-0.8,0.2-1.5,0.2-2.2,0c-7.8-0.6-15.5,5.4-18.5,14.8c-1.1,3.2-2.2,7.1-2.3,11.2
		v0.3c0,0.3,0,0.5,0,0.8c0,0.9,0.3,1.7,0.9,2.2c0.5,0.5,1.2,0.5,2,0.2l1.2-0.6c1.5-0.8,3.1-1.5,4.6-2.5c2.2-1.2,3.7-1.7,7.1-2.2
		c0.8,0,1.7-0.2,2.9-0.3c12.9,0.3,14.9,2.6,18.5,6.2l0.5,0.5c3.4,4.8,4.8,12.5,5.2,16.6c0.2,0.6,0.2,5.2,0.2,6
		c-0.3,2.6-1.2,9.4-4.3,13.2c-4.2,5.1-6.5,7.5-15.2,8.9c-0.8,0.2-3.7,0.8-4.3,0.6c-1.5,0-3.1-0.2-4.6-0.3l-1.4-0.2
		c-4.5-0.3-7.8-1.5-10.8-3.7c-1.5-1.2-8.6-7.7-10-10.5c-0.5-1.1-1.1-2-1.8-2.9c-0.6-0.9-2.3-5.5-2.8-7.2c-1.2-3.8-2.5-8.5-3.2-13.2
		c-1.1-6.8-0.9-13.4,0.6-20.2c0.9-4.6,2.5-9.4,4.5-14.6c2-5.4,5.2-9.8,9.4-13.4c0.2-0.2,0.5-0.3,0.8-0.8c1.8-1.7,6.8-6.2,9.1-7.4
		C482.1,572.1,485.3,570.6,488.6,570.6z"/>
	<path class="st1" d="M552,571.9c0,0.8-0.4,1.1-2.4,1.3c-1.7,0.3-3.4,0.4-5.1,0.3c-1.2-0.1-2.4-0.1-3.6-0.1c0,0.6,0,1.3,0,1.8
		c0.1,1.4,0.1,2.8,0,4.1c-0.2,1.9-0.1,3.8-0.2,5.6c-0.1,0.5,0,1.1,0.1,1.5c0.2,1.9,0.2,2.6,0.2,3.9c0,1.3-0.1,2.8,0.1,4.1
		c0.1,2.2,0.1,3.7-0.1,5.5c-0.2,2.1-0.2,4.2-0.4,6.3c-0.2,1.5-0.2,3-0.2,4.6c0.1,3.3,0,6.7-0.4,10c-0.1,0.7-0.3,1-1,1.1
		c-2.6,0.5-5.1,0.5-7.6,0.1c-0.6-0.1-1-0.4-1.1-0.9c0-0.4,0-0.9,0-1.4c-0.1-1.8,0-3.7-0.1-5.5c-0.3-3.2-0.3-6.5-0.1-9.6
		c0.2-3.5,0.3-6.9,0.2-10.4c0-1.7-0.2-3.5-0.3-5.2c-0.1-2.5-0.2-5,0-7.4c0.1-0.4,0.1-0.7,0.1-1.1c-0.2-2.2-0.2-4.3-0.2-6.7
		c-1.9,0.1-3.8,0.1-5.6,0.1c-2.6,0-3,0-3.9-1c-0.3-0.3-0.4-0.5-0.6-0.8c-0.8-1.9-1.2-3.8-1-5.7c0.2-1,0.7-1.3,2.8-1.7
		c1.7-0.3,3.4-0.3,5.1-0.4c3.9-0.2,7.9-0.1,11.7-0.2c3.2-0.1,6.4,0,9.6,0c1.6,0,2.7,0.4,3.2,1c0.2,0.3,0.4,0.4,0.4,0.7
		C551.6,566.9,551.9,570.9,552,571.9z"/>
	<path class="st2" d="M589.9,575.4c0,3,0,5.9,0,8.9c0.1,1.4-0.2,2.9-0.3,4.2c-0.1,2-0.1,3.9-0.1,5.9c0,2.2,0.2,4.2,0.2,6.4
		c0,1.6,0.2,5.7,0.1,7.4c-0.3,2.4,0,10.7-1.6,12.6c-0.2,0.6-0.6,1-1.3,1.2c-2.3,0.4-4.8,0.8-7.2,0.3c-1.3-0.3-1.5-0.5-1.5-1.6
		c0-1.5,0.1-3,0.2-4.5c0.3-2.2,0.2-4.3,0.2-6.4c0-1.5,0.2-4.6,0.2-4.7c-0.1-2.2,0-4.2,0.1-6.3c-2.9,0-5.7-0.1-8.6-0.2
		c-0.9-0.1-1.8,0-2.7,0c-0.4,0.1-0.9,0.1-1.3,0.1c0,0.1,0,0.3,0,0.4c0,3.8-0.2,7.5,0.1,11.3c0.2,3,0.2,6.2,0.2,9.2
		c0,0.4-0.1,0.9-0.2,1.3c-0.2,0.8-0.8,1.3-1.8,1.3c-1.3,0.1-3.2,0.5-5.1,0.2c-0.9,0-1.2-0.2-2-0.2c-0.7-0.1-1-0.4-1.2-0.9
		c-0.2-0.8-0.2-2.2-0.2-3.8c0-1.3,0.1-2.5,0.1-3.5c-0.1-2.7,0.1-3.9,0-7.3c0-2.1,0.1-2.4,0-4.2c0-3.3,0.4-6.6,0.4-10
		c0-3.9-0.1-7.8,0.1-11.7c0.1-2.5-0.4-14.4-0.4-15.2c-0.2-1.8,0.8-1.8,2.2-2.1c1.4-0.3,2.9-0.2,4.3-0.2c1.3-0.1,3.1,0.1,4.2,0.6
		c0.5,0.3,0.8,0.8,0.8,1.3c-0.1,0.5-0.1,1-0.2,1.5c-0.4,2.1-0.4,9.5-0.4,10.5c-0.1,1.6-0.1,3.3-0.2,5c0,2.2,0.2,4.5,0,6.6
		c0,0.1-0.1,0.1-0.1,0.1c1.7,0,3.3-0.1,5,0c2.2,0,4.3-0.1,6.5-0.1c0.2-2.1,0.1-4.1,0.4-6.2c0.2-0.9,0.3-13.8,0.3-14.5
		c0.3-4.6,2.4-5,5.2-5.2c2-0.1,4.1-0.3,5.6,0.7c0.6,0.4,0.5,1.9,0.5,2.6C590.4,567.4,589.9,574.6,589.9,575.4z"/>
</g>
<g>
	<path class="st6" d="M586.1,638.1c-3.3,0-26.7,0.6-32.9,0.7c-2.9,0.2-9.3,0-9.3,0c-6.4-0.1-10.5,0-17.2,0.4c-0.8,0-1.6,0.2-2.7,0.3
		c-0.6,0.2-1.4,0.1-2.1,0c-0.8-0.2-1.3-0.6-1.5-1.2c-0.7-2.3-0.5-4.8-0.2-7.2c0.2-0.7,0.6-1,1.4-1.1c1.6-0.3,3.9-0.3,5.8-0.4
		c5,0,10.1,0.1,15.1,0.1c2.3,0,4.6,0.1,6.6,0.1c3.3,0.1,6.4-0.1,9.5-0.2c3.1-0.2,17.4-0.4,20.9-0.4c1.4,0,3.1-0.1,4.5-0.1
		c0.8,0,1.7,0.1,2.5,0.2c0.8,0.1,1.3,0.4,1.5,1c0,0.3,0.2,0.7,0.2,1c0.2,1.8,0.1,3.5-0.1,5.3C588.2,637.7,587.6,638.1,586.1,638.1z"
		/>
</g>
<g>
	<path class="st0" d="M464.1,722.3c-2.3,0.5-4.5,0-6.6-0.6c-2.2-0.6-2.9-1.5-2.9-3.8c0.2-4,0.8-8.2,1.7-12.2c0-0.3,0.2-0.8,0.3-1.1
		c0.6-2,1.7-3.2,4-3.1c2,0,4-0.3,6.2-0.2c5.7,0,11.5,0.5,17.4-0.5c1.2-0.2,2.5,0,3.7,0c1.2,0.2,1.7,0.9,1.7,2.2
		c-0.2,0.6-0.3,1.2-0.5,1.8c-0.8,3.7-2.3,7.1-3.4,10.8c-0.5,1.1-0.9,2.3-1.2,3.4c-0.5,1.4-1.2,2-2.6,2.3c-2.8,0.5-5.5,0.3-8.9,0.5
		C470.4,721.7,467.2,721.9,464.1,722.3z M512.7,703.7c-0.2,2.2-0.5,4.2-1.4,6c-1.7,3.4-2.3,6.9-2.8,10.6c-0.6,3.7-1.8,7.4-2.6,10.9
		c-0.9,3.7-2.2,7.1-2.9,10.8c-0.6,3.1-1.8,6-2.8,9.1c-0.5,1.1-0.8,2.3-1.1,3.5c-0.5,2.3-1.2,4.6-1.8,7.1c-0.9,3.4-1.8,6.9-2.6,10.3
		c-0.5,1.5-3.7,16.6-4.8,18.5c-1.4,6.9-3.1,13.8-4.8,20.8c-0.2,0.8-0.3,1.4-0.6,2.2c-0.9,2.5-2.9,3.7-5.5,3.7c-2,0-4.2-0.2-6.3-0.2
		c-2-0.2-4-0.5-5.8-0.6c-0.6,0-1.2-0.2-1.8-0.3c-0.9-0.3-1.5-0.9-1.5-2c0-0.9,0.2-1.7,0.5-2.5c1.4-4.2,11.2-39.7,12.5-44.8
		c0.6-2.5,1.2-5.1,2-7.4c2.6-8.3,4.8-16.8,6.6-25.2c0.3-1.1,0.6-2.3,0.9-3.2c0.9-2.5,1.5-4.9,2-7.5c0.3-1.4,0.6-2.8,1.1-4.2
		c0.6-2.2,1.2-4.3,1.5-6.5c0.6-3.1,1.2-6,2-9.1c0.5-1.5,1.5-2.3,3.2-2.2c0.6,0,1.2,0.2,1.8,0.2c0.6,0,1.2,0,1.8,0
		c2.2,0,4.5,0,6.6-0.3c1.8-0.3,3.7-0.3,5.5,0.5C512.5,702.4,512.9,702.8,512.7,703.7z"/>
	<path class="st1" d="M549.8,711.7c0,0.8-0.4,1.1-2.4,1.3c-1.7,0.3-3.4,0.4-5.1,0.3c-1.2-0.1-2.4-0.1-3.6-0.1c0,0.6,0,1.3,0,1.8
		c0.1,1.4,0.1,2.8,0,4.1c-0.2,1.9-0.1,3.8-0.2,5.6c-0.1,0.5,0,1.1,0.1,1.5c0.2,1.9,0.2,2.6,0.2,3.9c0,1.3-0.1,2.8,0.1,4.1
		c0.1,2.2,0.1,3.7-0.1,5.5c-0.2,2.1-0.2,4.2-0.4,6.3c-0.2,1.5-0.2,3-0.2,4.6c0.1,3.3,0,6.7-0.4,10c-0.1,0.7-0.3,1-1,1.1
		c-2.6,0.5-5.1,0.5-7.6,0.1c-0.6-0.1-1-0.4-1.1-0.9c0-0.4,0-0.9,0-1.4c-0.1-1.8,0-3.7-0.1-5.5c-0.3-3.2-0.3-6.5-0.1-9.6
		c0.2-3.5,0.3-6.9,0.2-10.4c0-1.7-0.2-3.5-0.3-5.2c-0.1-2.5-0.2-5,0-7.4c0.1-0.4,0.1-0.7,0.1-1.1c-0.2-2.2-0.2-4.3-0.2-6.7
		c-1.9,0.1-3.8,0.1-5.6,0.1c-2.6,0-3,0-3.9-1c-0.3-0.3-0.4-0.5-0.6-0.8c-0.8-1.9-1.2-3.8-1-5.7c0.2-1,0.7-1.3,2.8-1.7
		c1.7-0.3,3.4-0.3,5.1-0.4c3.9-0.2,7.9-0.1,11.7-0.2c3.2-0.1,6.4,0,9.6,0c1.6,0,2.7,0.4,3.2,1c0.2,0.3,0.4,0.4,0.4,0.7
		C549.5,706.7,549.8,710.7,549.8,711.7z"/>
	<path class="st2" d="M587.8,715.2c0,3,0,5.9,0,8.9c0.1,1.4-0.2,2.9-0.3,4.2c-0.1,2-0.1,3.9-0.1,5.9c0,2.2,0.2,4.2,0.2,6.4
		c0,1.6,0.2,5.7,0.1,7.4c-0.3,2.4,0,10.7-1.6,12.6c-0.2,0.6-0.6,1-1.3,1.2c-2.3,0.4-4.8,0.8-7.2,0.3c-1.3-0.3-1.5-0.5-1.5-1.6
		c0-1.5,0.1-3,0.2-4.5c0.3-2.2,0.2-4.3,0.2-6.4c0-1.5,0.2-4.6,0.2-4.7c-0.1-2.2,0-4.2,0.1-6.3c-2.9,0-5.7-0.1-8.6-0.2
		c-0.9-0.1-1.8,0-2.7,0c-0.4,0.1-0.9,0.1-1.3,0.1c0,0.1,0,0.3,0,0.4c0,3.8-0.2,7.5,0.1,11.3c0.2,3,0.2,6.2,0.2,9.2
		c0,0.4-0.1,0.9-0.2,1.3c-0.2,0.8-0.8,1.3-1.8,1.3c-1.3,0.1-3.2,0.5-5.1,0.2c-0.9,0-1.2-0.2-2-0.2c-0.7-0.1-1-0.4-1.2-0.9
		c-0.2-0.8-0.2-2.2-0.2-3.8c0-1.3,0.1-2.5,0.1-3.5c-0.1-2.7,0.1-3.9,0-7.3c0-2.1,0.1-2.4,0-4.2c0-3.3,0.4-6.6,0.4-10
		c0-3.9-0.1-7.8,0.1-11.7c0.1-2.5-0.4-14.4-0.4-15.2c-0.2-1.8,0.8-1.8,2.2-2.1c1.4-0.3,2.9-0.2,4.3-0.2c1.3-0.1,3.1,0.1,4.2,0.6
		c0.5,0.3,0.8,0.8,0.8,1.3c-0.1,0.5-0.1,1-0.2,1.5c-0.4,2.1-0.4,9.5-0.4,10.5c-0.1,1.6-0.1,3.3-0.2,5c0,2.2,0.2,4.5,0,6.6
		c0,0.1-0.1,0.1-0.1,0.1c1.7,0,3.3-0.1,5,0c2.2,0,4.3-0.1,6.5-0.1c0.2-2.1,0.1-4.1,0.4-6.2c0.2-0.9,0.3-13.8,0.3-14.5
		c0.3-4.6,2.4-5,5.2-5.2c2-0.1,4.1-0.3,5.6,0.7c0.6,0.4,0.5,1.9,0.5,2.6C588.2,707.2,587.8,714.4,587.8,715.2z"/>
</g>
<g>
	<path class="st6" d="M586.1,777.9c-3.3,0-26.7,0.6-32.9,0.7c-2.9,0.2-9.3,0-9.3,0c-6.4-0.1-10.5,0-17.2,0.4c-0.8,0-1.6,0.2-2.7,0.3
		c-0.6,0.2-1.4,0.1-2.1,0c-0.8-0.2-1.3-0.6-1.5-1.2c-0.7-2.3-0.5-4.8-0.2-7.2c0.2-0.7,0.6-1,1.4-1.1c1.6-0.3,3.9-0.3,5.8-0.4
		c5,0,10.1,0.1,15.1,0.1c2.3,0,4.6,0.1,6.6,0.1c3.3,0.1,6.4-0.1,9.5-0.2c3.1-0.2,17.4-0.4,20.9-0.4c1.4,0,3.1-0.1,4.5-0.1
		c0.8,0,1.7,0.1,2.5,0.2c0.8,0.1,1.3,0.4,1.5,1c0,0.3,0.2,0.7,0.2,1c0.2,1.8,0.1,3.5-0.1,5.3C588.2,777.5,587.6,777.8,586.1,777.9z"
		/>
</g>
<g>
	<path class="st0" d="M643.5,626.6c0.8-3.1,1.7-6,2.5-8.9c0.5-1.8,1.2-3.4,2.3-4.9c2-3.4,4.3-6.5,7.4-8.9c1.2-1.1,2.6-2,4.2-2.6
		c0.8-0.5,1.4-0.8,2.2-1.2s0.9-1.4,0.2-2c-1.8-1.4-3.2-3.2-4.5-4.9c-2.6-4-4.5-8.2-3.2-13.1c0.8-2.8,1.5-5.5,2.6-8.2
		c1.5-2.9,3.5-5.5,6.2-7.5c1.2-1.1,2.6-1.5,4.2-2c4.3-1.1,8.5-1.4,12.8-0.2c0.6,0.3,6.9,1.8,8.8,3.7c0.9,1.1,1.8,2,2.8,2.9
		c2.5,2.2,3.7,4.9,4,8.2c0.2,2.3,0.2,4.6,0.3,6.9c0,4-1.8,7.1-4,10.2c-1.4,1.8-5.7,4.5-6,4.6c-0.6,0.5-0.6,1.4-0.2,1.8
		c0.9,0.9,2,1.5,2.9,2.3c2.2,1.5,4,3.2,5.7,5.1c2.5,2.6,4.3,5.4,5.2,8.6c0.5,1.5,1.1,2.9,1.5,4.3c0.5,1.5,0.6,3.1,0.9,4.6
		c0.8,4,0.8,8.3,1.2,12.5c0.2,0.3,0.2,0.8,0.2,1.2c-0.3,7.5-1.4,15.1-4.2,22.1c-1.7,4.2-4.5,7.5-8.2,10.2c-3.1,2-6.3,3.5-9.7,4.8
		c-4.6,1.5-9.4,2-14.2,1.4c-4.3-0.6-8.3-2.2-12-4.6c-0.9-0.6-1.7-1.4-2.6-2c-0.8-0.8-1.4-1.5-2.2-2.2c-3.8-3.2-5.7-7.5-7.1-12
		c-0.3-0.9-0.6-1.8-0.6-2.8c-0.5-4.3-1.2-8.6-0.8-13.1C641.8,636,642.6,631.3,643.5,626.6z"/>
	<path class="st1" d="M742,571.9c0,0.8-0.4,1.1-2.4,1.3c-1.7,0.3-3.4,0.4-5.1,0.3c-1.2-0.1-2.4-0.1-3.6-0.1c0,0.6,0,1.3,0,1.8
		c0.1,1.4,0.1,2.8,0,4.1c-0.2,1.9-0.1,3.8-0.2,5.6c-0.1,0.5,0,1.1,0.1,1.5c0.2,1.9,0.2,2.6,0.2,3.9c0,1.3-0.1,2.8,0.1,4.1
		c0.1,2.2,0.1,3.7-0.1,5.5c-0.2,2.1-0.2,4.2-0.4,6.3c-0.2,1.5-0.2,3-0.2,4.6c0.1,3.3,0,6.7-0.4,10c-0.1,0.7-0.3,1-1,1.1
		c-2.6,0.5-5.1,0.5-7.6,0.1c-0.6-0.1-1-0.4-1.1-0.9c0-0.4,0-0.9,0-1.4c-0.1-1.8,0-3.7-0.1-5.5c-0.3-3.2-0.3-6.5-0.1-9.6
		c0.2-3.5,0.3-6.9,0.2-10.4c0-1.7-0.2-3.5-0.3-5.2c-0.1-2.5-0.2-5,0-7.4c0.1-0.4,0.1-0.7,0.1-1.1c-0.2-2.2-0.2-4.3-0.2-6.7
		c-1.9,0.1-3.8,0.1-5.6,0.1c-2.6,0-3,0-3.9-1c-0.3-0.3-0.4-0.5-0.6-0.8c-0.8-1.9-1.2-3.8-1-5.7c0.2-1,0.7-1.3,2.8-1.7
		c1.7-0.3,3.4-0.3,5.1-0.4c3.9-0.2,7.9-0.1,11.7-0.2c3.2-0.1,6.4,0,9.6,0c1.6,0,2.7,0.4,3.2,1c0.2,0.3,0.4,0.4,0.4,0.7
		C741.6,566.9,741.9,570.9,742,571.9z"/>
	<path class="st2" d="M779.9,575.4c0,3,0,5.9,0,8.9c0.1,1.4-0.2,2.9-0.3,4.2c-0.1,2-0.1,3.9-0.1,5.9c0,2.2,0.2,4.2,0.2,6.4
		c0,1.6,0.2,5.7,0.1,7.4c-0.3,2.4,0,10.7-1.6,12.6c-0.2,0.6-0.6,1-1.3,1.2c-2.3,0.4-4.8,0.8-7.2,0.3c-1.3-0.3-1.5-0.5-1.5-1.6
		c0-1.5,0.1-3,0.2-4.5c0.3-2.2,0.2-4.3,0.2-6.4c0-1.5,0.2-4.6,0.2-4.7c-0.1-2.2,0-4.2,0.1-6.3c-2.9,0-5.7-0.1-8.6-0.2
		c-0.9-0.1-1.8,0-2.7,0c-0.4,0.1-0.9,0.1-1.3,0.1c0,0.1,0,0.3,0,0.4c0,3.8-0.2,7.5,0.1,11.3c0.2,3,0.2,6.2,0.2,9.2
		c0,0.4-0.1,0.9-0.2,1.3c-0.2,0.8-0.8,1.3-1.8,1.3c-1.3,0.1-3.2,0.5-5.1,0.2c-0.9,0-1.2-0.2-2-0.2c-0.7-0.1-1-0.4-1.2-0.9
		c-0.2-0.8-0.2-2.2-0.2-3.8c0-1.3,0.1-2.5,0.1-3.5c-0.1-2.7,0.1-3.9,0-7.3c0-2.1,0.1-2.4,0-4.2c0-3.3,0.4-6.6,0.4-10
		c0-3.9-0.1-7.8,0.1-11.7c0.1-2.5-0.4-14.4-0.4-15.2c-0.2-1.8,0.8-1.8,2.2-2.1c1.4-0.3,2.9-0.2,4.3-0.2c1.3-0.1,3.1,0.1,4.2,0.6
		c0.5,0.3,0.8,0.8,0.8,1.3c-0.1,0.5-0.1,1-0.2,1.5c-0.4,2.1-0.4,9.5-0.4,10.5c-0.1,1.6-0.1,3.3-0.2,5c0,2.2,0.2,4.5,0,6.6
		c0,0.1-0.1,0.1-0.1,0.1c1.7,0,3.3-0.1,5,0c2.2,0,4.3-0.1,6.5-0.1c0.2-2.1,0.1-4.1,0.4-6.2c0.2-0.9,0.3-13.8,0.3-14.5
		c0.3-4.6,2.4-5,5.2-5.2c2-0.1,4.1-0.3,5.6,0.7c0.6,0.4,0.5,1.9,0.5,2.6C780.4,567.4,779.9,574.6,779.9,575.4z"/>
</g>
<g>
	<path class="st6" d="M775.3,638.1c-3.3,0-26.7,0.6-32.9,0.7c-2.9,0.2-9.3,0-9.3,0c-6.4-0.1-10.5,0-17.2,0.4c-0.8,0-1.6,0.2-2.7,0.3
		c-0.6,0.2-1.4,0.1-2.1,0c-0.8-0.2-1.3-0.6-1.5-1.2c-0.7-2.3-0.5-4.8-0.2-7.2c0.2-0.7,0.6-1,1.4-1.1c1.6-0.3,3.9-0.3,5.8-0.4
		c5,0,10.1,0.1,15.1,0.1c2.3,0,4.6,0.1,6.6,0.1c3.3,0.1,6.4-0.1,9.5-0.2c3.1-0.2,17.4-0.4,20.9-0.4c1.4,0,3.1-0.1,4.5-0.1
		c0.8,0,1.7,0.1,2.5,0.2c0.8,0.1,1.3,0.4,1.5,1c0,0.3,0.2,0.7,0.2,1c0.2,1.8,0.1,3.5-0.1,5.3C777.4,637.7,776.8,638.1,775.3,638.1z"
		/>
</g>
</svg>
