<?xml version="1.0" encoding="iso-8859-1"?>
<!-- Uploaded to: SVG Repo, www.svgrepo.com, Generator: SVG Repo Mixer Tools -->
<!DOCTYPE svg PUBLIC "-//W3C//DTD SVG 1.1//EN" "http://www.w3.org/Graphics/SVG/1.1/DTD/svg11.dtd">
<svg fill="#000000" height="800px" width="800px" version="1.1" id="Capa_1" xmlns="http://www.w3.org/2000/svg" xmlns:xlink="http://www.w3.org/1999/xlink" 
	 viewBox="0 0 431.154 431.154" xml:space="preserve">
<g>
	<path d="M345.907,206.015c-16.036,0-29.082,13.047-29.082,29.083s13.046,29.083,29.082,29.083
		c16.036,0,29.083-13.047,29.083-29.084C374.99,219.061,361.943,206.015,345.907,206.015z M345.907,255.681
		c-11.349,0-20.582-9.233-20.582-20.583c0-11.35,9.233-20.583,20.582-20.583c11.35,0,20.583,9.233,20.583,20.582
		C366.49,246.446,357.257,255.681,345.907,255.681z"/>
	<path d="M268.995,206.015c-16.037,0-29.084,13.047-29.084,29.083s13.047,29.083,29.084,29.083
		c16.036,0,29.082-13.047,29.082-29.084C298.077,219.061,285.031,206.015,268.995,206.015z M268.995,255.681
		c-11.35,0-20.584-9.233-20.584-20.583c0-11.35,9.234-20.583,20.584-20.583c11.349,0,20.582,9.233,20.582,20.582
		C289.577,246.446,280.344,255.681,268.995,255.681z"/>
	<path d="M192.081,206.015c-16.036,0-29.082,13.047-29.082,29.083s13.046,29.083,29.082,29.083
		c16.036,0,29.083-13.047,29.083-29.084C221.164,219.061,208.117,206.015,192.081,206.015z M192.081,255.681
		c-11.349,0-20.582-9.233-20.582-20.583c0-11.35,9.233-20.583,20.582-20.583c11.35,0,20.583,9.233,20.583,20.582
		C212.664,246.446,203.431,255.681,192.081,255.681z"/>
	<path d="M345.907,282.015c-16.036,0-29.082,13.047-29.082,29.083s13.046,29.083,29.082,29.083
		c16.036,0,29.083-13.047,29.083-29.084C374.99,295.06,361.943,282.015,345.907,282.015z M345.907,331.681
		c-11.349,0-20.582-9.233-20.582-20.583s9.233-20.583,20.582-20.583c11.35,0,20.583,9.233,20.583,20.582
		C366.49,322.446,357.257,331.681,345.907,331.681z"/>
	<path d="M268.995,282.015c-16.037,0-29.084,13.047-29.084,29.083s13.047,29.083,29.084,29.083
		c16.036,0,29.082-13.047,29.082-29.084C298.077,295.06,285.031,282.015,268.995,282.015z M268.995,331.681
		c-11.35,0-20.584-9.233-20.584-20.583s9.234-20.583,20.584-20.583c11.349,0,20.582,9.233,20.582,20.582
		C289.577,322.446,280.344,331.681,268.995,331.681z"/>
	<path d="M192.081,282.015c-16.036,0-29.082,13.047-29.082,29.083s13.046,29.083,29.082,29.083
		c16.036,0,29.083-13.047,29.083-29.084C221.164,295.06,208.117,282.015,192.081,282.015z M192.081,331.681
		c-11.349,0-20.582-9.233-20.582-20.583s9.233-20.583,20.582-20.583c11.35,0,20.583,9.233,20.583,20.582
		C212.664,322.446,203.431,331.681,192.081,331.681z"/>
	<path d="M397.324,28.208H131.489c-1.747-15.842-15.209-28.207-31.51-28.207L35.284,0C17.803,0,3.58,14.223,3.58,31.705v367.743
		c0,17.482,14.223,31.706,31.704,31.706l64.695-0.001c16.038,0,29.324-11.971,31.413-27.445h265.932
		c16.68,0,30.25-13.57,30.25-30.25v-315C427.574,41.778,414.004,28.208,397.324,28.208z M123.186,399.448
		c0,12.795-10.41,23.205-23.207,23.205l-64.695,0.001c-12.795,0-23.204-10.41-23.204-23.206V31.705
		c0-12.622,10.133-22.917,22.69-23.192v172.945c0,2.348,1.903,4.25,4.25,4.25c2.348,0,4.25-1.902,4.25-4.25V8.5l56.709,0.001
		c12.797,0,23.207,10.409,23.207,23.204V399.448z M419.074,373.458c0,11.993-9.757,21.75-21.75,21.75H131.686v-27.5h163.07
		c2.348,0,4.25-1.902,4.25-4.25c0-2.348-1.902-4.25-4.25-4.25h-163.07v-322.5h265.638c11.993,0,21.75,9.757,21.75,21.75V373.458z"/>
	<path d="M374.757,73.208h-213c-2.347,0-4.25,1.902-4.25,4.25v84c0,2.348,1.903,4.25,4.25,4.25h213c2.348,0,4.25-1.902,4.25-4.25
		v-84C379.007,75.11,377.104,73.208,374.757,73.208z M166.007,157.208v-49.5h112.75c2.348,0,4.25-1.902,4.25-4.25
		c0-2.348-1.902-4.25-4.25-4.25h-112.75v-17.5h204.5v49.5h-69.75c-2.348,0-4.25,1.902-4.25,4.25c0,2.348,1.902,4.25,4.25,4.25h69.75
		v17.5H166.007z"/>
	<path d="M39.02,253.208c-2.347,0-4.25,1.902-4.25,4.25v74c0,2.348,1.903,4.25,4.25,4.25c2.348,0,4.25-1.902,4.25-4.25v-74
		C43.27,255.11,41.368,253.208,39.02,253.208z"/>
</g>
</svg>