<?xml version="1.0" encoding="UTF-8" ?>
<!DOCTYPE svg PUBLIC "-//W3C//DTD SVG 1.1//EN" "http://www.w3.org/Graphics/SVG/1.1/DTD/svg11.dtd">
<svg width="427.5pt" height="131.25pt" viewBox="0 0 2863 881" version="1.1" xmlns="http://www.w3.org/2000/svg">
<g id="#ffffffff">
</g>
<g id="#ee414cff">
<path fill="#ee414c" opacity="1.00" d=" M 12.08 328.23 C 121.87 221.24 231.66 114.25 341.43 7.24 C 451.29 114.16 561.04 221.19 670.80 328.20 C 626.84 328.24 582.88 328.18 538.92 328.23 C 477.27 268.16 415.63 208.07 353.98 148.00 C 349.73 143.96 345.75 139.63 341.29 135.83 C 319.12 157.84 296.57 179.45 274.27 201.32 C 230.81 243.59 187.49 286.01 143.97 328.21 C 100.01 328.22 56.04 328.19 12.08 328.23 Z" />
</g>
<g id="#3e4149ff">
<path fill="#3e4149" opacity="1.00" d=" M 2475.26 234.30 C 2518.94 201.13 2573.38 183.31 2627.98 181.31 C 2650.80 180.36 2673.74 182.02 2696.08 186.91 C 2749.13 198.34 2799.43 224.40 2837.64 263.19 C 2813.74 291.64 2789.63 319.91 2765.78 348.39 C 2743.03 321.02 2712.48 299.69 2678.09 289.95 C 2653.08 282.77 2626.01 283.50 2601.25 291.30 C 2574.59 299.67 2550.89 316.90 2534.53 339.52 C 2515.97 364.91 2506.78 396.63 2507.29 427.96 C 2507.43 458.86 2516.75 489.94 2535.01 515.01 C 2548.37 533.42 2566.48 548.43 2587.24 557.79 C 2613.24 569.55 2643.09 572.76 2670.95 566.49 C 2706.97 558.40 2739.79 538.58 2765.70 512.51 C 2789.97 538.00 2814.06 563.66 2838.31 589.18 C 2812.43 615.80 2781.33 637.20 2747.65 652.72 C 2707.91 671.01 2663.84 681.01 2620.00 677.93 C 2569.98 675.35 2520.41 658.86 2479.92 629.15 C 2440.57 600.53 2410.38 559.64 2394.52 513.65 C 2375.47 458.38 2375.12 396.39 2395.42 341.40 C 2411.00 299.00 2439.19 261.45 2475.26 234.30 Z" />
<path fill="#3e4149" opacity="1.00" d=" M 839.13 185.13 C 910.45 185.18 981.78 185.10 1053.11 185.17 C 1081.83 185.34 1110.76 188.58 1138.17 197.45 C 1167.22 206.76 1194.61 223.13 1213.90 247.08 C 1226.84 262.94 1236.01 281.72 1241.39 301.43 C 1247.48 323.70 1249.07 347.02 1247.72 370.00 C 1245.89 406.85 1234.75 444.22 1211.07 473.05 C 1190.50 498.51 1161.21 515.86 1130.07 525.10 C 1106.40 532.20 1081.66 535.28 1057.00 535.59 C 1025.73 535.60 994.46 535.59 963.19 535.60 C 963.20 581.33 963.18 627.06 963.20 672.80 C 921.84 672.87 880.48 672.79 839.12 672.83 C 839.15 510.27 839.14 347.70 839.13 185.13 M 963.22 282.78 C 963.18 334.55 963.17 386.33 963.22 438.11 C 980.49 438.10 997.75 438.11 1015.01 438.10 C 1030.37 437.97 1045.77 438.58 1061.09 437.22 C 1074.11 435.65 1087.15 432.28 1098.45 425.42 C 1108.73 419.26 1117.24 410.16 1122.52 399.39 C 1129.11 386.35 1131.10 371.50 1131.01 357.05 C 1130.56 341.57 1127.22 325.66 1118.15 312.84 C 1109.37 300.12 1095.54 291.66 1080.86 287.45 C 1066.33 283.13 1051.04 282.57 1035.98 282.78 C 1011.73 282.78 987.47 282.78 963.22 282.78 Z" />
<path fill="#3e4149" opacity="1.00" d=" M 1348.37 185.10 C 1475.70 185.19 1603.03 185.13 1730.36 185.13 C 1730.36 217.69 1730.37 250.24 1730.36 282.79 C 1644.44 282.76 1558.52 282.80 1472.59 282.77 C 1472.54 315.02 1472.60 347.28 1472.56 379.54 C 1550.13 379.55 1627.70 379.54 1705.27 379.55 C 1705.25 412.09 1705.29 444.64 1705.25 477.19 C 1627.70 477.15 1550.15 477.25 1472.60 477.14 C 1472.55 509.83 1472.58 542.53 1472.58 575.23 C 1561.11 575.24 1649.64 575.19 1738.17 575.26 C 1738.17 607.77 1738.16 640.28 1738.17 672.79 C 1608.23 672.89 1478.29 672.77 1348.36 672.85 C 1348.36 510.27 1348.34 347.68 1348.37 185.10 Z" />
<path fill="#3e4149" opacity="1.00" d=" M 2011.80 185.08 C 2054.25 185.15 2096.71 185.26 2139.16 185.02 C 2168.87 254.70 2198.06 324.61 2227.57 394.38 C 2266.74 487.12 2305.68 579.97 2345.00 672.65 C 2300.79 673.04 2256.56 672.75 2212.34 672.79 C 2200.81 642.92 2189.11 613.10 2177.66 583.19 C 2106.55 583.12 2035.45 583.14 1964.35 583.18 C 1952.69 613.10 1940.68 642.88 1929.02 672.79 C 1886.41 672.88 1843.79 672.77 1801.19 672.85 C 1871.42 510.27 1941.49 347.62 2011.80 185.08 M 2050.59 362.39 C 2033.95 404.48 2017.50 446.66 2000.73 488.70 C 2047.53 488.76 2094.34 488.74 2141.15 488.71 C 2118.11 428.77 2094.84 368.92 2071.81 308.98 C 2064.43 326.66 2057.71 344.61 2050.59 362.39 Z" />
<path fill="#3e4149" opacity="1.00" d=" M 328.59 328.79 C 349.85 326.40 371.85 330.05 390.77 340.19 C 410.50 350.55 426.78 367.34 436.55 387.37 C 452.83 420.15 450.31 461.39 429.88 491.81 C 411.35 520.48 378.19 538.87 344.06 539.46 C 325.27 539.91 306.36 535.30 289.96 526.11 C 273.20 516.79 259.08 502.81 249.59 486.15 C 238.73 467.15 233.89 444.67 236.31 422.90 C 238.61 398.88 249.65 375.84 266.82 358.90 C 283.27 342.31 305.42 331.61 328.59 328.79 Z" />
<path fill="#3e4149" opacity="1.00" d=" M 10.38 358.77 C 49.47 358.80 88.55 358.76 127.63 358.79 C 129.76 390.23 138.79 421.21 154.22 448.70 C 173.83 483.99 203.65 513.49 239.13 532.75 C 278.13 554.15 323.93 562.66 368.03 557.10 C 407.65 552.32 445.74 535.96 476.64 510.74 C 505.35 487.44 527.89 456.59 541.26 422.11 C 549.25 401.87 553.67 380.38 555.47 358.73 C 594.49 358.84 633.51 358.75 672.53 358.77 C 670.83 404.31 659.45 449.46 639.42 490.39 C 609.46 552.02 559.81 603.82 499.54 636.44 C 461.73 657.04 419.82 670.08 377.00 674.58 C 331.16 679.49 284.28 674.85 240.36 660.78 C 171.83 639.03 111.06 594.05 69.92 535.12 C 33.68 483.67 12.76 421.65 10.38 358.77 Z" />
<path fill="#3e4149" opacity="1.00" d=" M 832.95 782.01 C 839.02 774.79 848.94 772.70 857.95 772.78 C 869.28 773.13 880.70 774.07 891.67 777.11 C 891.64 781.28 891.64 785.45 891.67 789.63 C 880.76 788.93 869.86 787.96 858.92 787.89 C 853.96 788.11 848.30 788.81 844.98 792.97 C 840.98 798.03 840.33 804.73 839.64 810.92 C 839.19 820.84 838.75 830.89 840.35 840.74 C 841.44 847.06 843.73 853.95 849.47 857.54 C 855.31 861.24 862.50 860.19 869.06 860.19 C 876.59 859.80 884.12 859.53 891.66 859.23 C 891.65 863.42 891.65 867.61 891.66 871.81 C 881.98 874.34 871.94 874.98 861.98 875.33 C 854.93 875.53 847.51 875.20 841.20 871.70 C 833.95 867.88 829.28 860.54 826.85 852.91 C 822.70 840.17 823.02 826.56 823.44 813.33 C 824.13 802.45 825.66 790.64 832.95 782.01 Z" />
<path fill="#3e4149" opacity="1.00" d=" M 1190.73 773.86 C 1196.17 773.84 1201.61 773.84 1207.06 773.86 C 1221.95 797.34 1236.76 820.89 1251.68 844.36 C 1251.80 820.86 1251.66 797.35 1251.74 773.85 C 1257.08 773.85 1262.43 773.83 1267.78 773.87 C 1267.89 807.44 1267.74 841.02 1267.85 874.59 C 1262.52 874.60 1257.18 874.60 1251.86 874.59 C 1237.03 851.25 1222.06 828.00 1207.27 804.64 C 1206.98 827.94 1207.21 851.24 1207.16 874.54 C 1201.66 874.64 1196.17 874.60 1190.68 874.58 C 1190.75 841.00 1190.65 807.43 1190.73 773.86 Z" />
<path fill="#3e4149" opacity="1.00" d=" M 1411.36 780.37 C 1416.04 775.23 1423.27 773.52 1429.97 773.30 C 1443.44 772.94 1456.97 774.18 1470.17 776.88 C 1470.17 781.10 1470.17 785.34 1470.19 789.57 C 1457.44 789.07 1444.71 788.13 1431.95 788.25 C 1428.44 788.28 1424.27 789.36 1422.83 792.95 C 1420.84 797.68 1421.77 803.01 1421.71 808.01 C 1421.62 811.96 1424.15 816.13 1428.36 816.55 C 1437.90 817.69 1447.59 816.00 1457.11 817.53 C 1463.04 818.56 1468.34 822.56 1470.89 828.03 C 1474.46 835.51 1473.71 844.03 1473.65 852.08 C 1473.58 859.17 1471.07 866.76 1465.01 870.94 C 1457.44 876.13 1447.74 875.80 1438.96 875.49 C 1428.79 874.91 1418.48 874.38 1408.63 871.63 C 1408.70 867.45 1408.67 863.28 1408.68 859.11 C 1421.43 859.74 1434.18 860.89 1446.96 860.40 C 1451.25 860.20 1456.14 858.11 1457.31 853.59 C 1457.88 849.41 1457.65 845.16 1457.49 840.98 C 1457.36 837.20 1454.61 833.64 1450.74 833.24 C 1442.40 832.24 1433.96 833.28 1425.61 832.68 C 1419.06 832.01 1412.24 828.98 1408.96 823.00 C 1404.69 815.75 1405.80 807.04 1405.64 799.01 C 1405.54 792.46 1406.67 785.30 1411.36 780.37 Z" />
<path fill="#3e4149" opacity="1.00" d=" M 1937.83 779.82 C 1943.78 774.36 1952.15 772.88 1959.96 772.79 C 1971.52 772.97 1983.09 774.20 1994.33 776.98 C 1994.37 781.19 1994.35 785.41 1994.37 789.63 C 1986.51 789.27 1978.70 788.28 1970.84 788.19 C 1964.29 787.92 1957.27 787.11 1951.19 790.08 C 1945.11 793.43 1943.66 800.88 1942.75 807.18 C 1941.66 818.11 1941.38 829.19 1942.94 840.10 C 1944.02 846.70 1946.28 854.03 1952.36 857.68 C 1958.28 861.25 1965.45 860.18 1972.02 860.18 C 1979.46 859.81 1986.91 859.50 1994.37 859.24 C 1994.35 863.43 1994.36 867.63 1994.36 871.83 C 1983.12 874.63 1971.47 875.32 1959.94 875.35 C 1952.19 875.36 1944.04 873.28 1938.41 867.70 C 1931.09 860.87 1928.36 850.74 1926.86 841.18 C 1925.41 829.15 1925.56 816.96 1926.86 804.92 C 1928.24 795.86 1930.67 786.12 1937.83 779.82 Z" />
<path fill="#3e4149" opacity="1.00" d=" M 2136.15 775.30 C 2144.04 772.25 2152.73 772.55 2161.03 773.28 C 2169.22 773.69 2177.34 775.10 2185.33 776.98 C 2185.37 781.20 2185.35 785.41 2185.37 789.63 C 2174.27 788.92 2163.17 787.92 2152.05 787.91 C 2146.60 788.09 2140.39 789.42 2137.47 794.55 C 2132.83 802.88 2133.37 812.80 2132.79 822.02 C 2132.97 831.70 2132.84 841.90 2137.15 850.82 C 2139.79 856.52 2145.81 860.01 2152.00 860.23 C 2163.13 860.52 2174.24 859.48 2185.37 859.24 C 2185.35 863.37 2185.32 867.50 2185.42 871.63 C 2176.83 874.26 2167.78 874.69 2158.88 875.23 C 2151.60 875.47 2143.99 875.74 2137.17 872.81 C 2130.18 869.95 2124.91 863.85 2122.04 856.98 C 2117.48 846.27 2116.90 834.43 2116.72 822.95 C 2117.06 811.75 2117.33 800.16 2121.82 789.69 C 2124.49 783.29 2129.60 777.79 2136.15 775.30 Z" />
<path fill="#3e4149" opacity="1.00" d=" M 19.65 773.85 C 33.76 773.86 47.86 773.83 61.97 773.86 C 69.10 773.94 76.87 775.49 81.87 781.00 C 88.12 788.03 89.06 798.02 88.78 807.03 C 88.41 815.35 87.09 824.63 80.72 830.64 C 76.10 835.24 69.21 836.22 62.98 836.10 C 53.87 835.53 44.76 834.71 35.73 833.37 C 35.78 847.11 35.69 860.85 35.77 874.59 C 30.38 874.60 24.99 874.61 19.60 874.58 C 19.67 841.01 19.58 807.43 19.65 773.85 M 35.74 788.70 C 35.74 799.60 35.74 810.50 35.74 821.40 C 44.49 821.40 53.24 821.43 61.98 821.40 C 64.95 821.42 68.10 820.25 69.79 817.71 C 72.43 813.68 72.60 808.67 72.57 804.02 C 72.52 799.59 71.89 794.68 68.65 791.38 C 66.46 788.97 63.02 788.67 59.97 788.68 C 51.89 788.70 43.82 788.69 35.74 788.70 Z" />
<path fill="#3e4149" opacity="1.00" d=" M 101.34 874.60 C 101.47 841.00 101.19 807.40 101.48 773.81 C 115.99 773.93 130.50 773.78 145.01 773.88 C 152.07 773.99 159.69 775.93 164.33 781.63 C 170.02 788.72 170.95 798.25 170.71 807.02 C 170.53 814.51 169.44 822.60 164.46 828.54 C 161.93 831.73 158.00 833.16 154.31 834.56 C 161.17 847.78 167.46 861.28 174.20 874.56 C 168.21 874.64 162.23 874.57 156.25 874.61 C 149.99 861.60 144.11 848.42 137.81 835.44 C 131.00 834.62 124.14 834.37 117.34 833.46 C 117.32 847.17 117.31 860.88 117.34 874.59 C 112.01 874.60 106.68 874.59 101.34 874.60 M 117.41 820.48 C 126.95 820.39 136.48 820.58 146.01 820.40 C 150.16 820.45 153.31 816.92 153.85 813.00 C 154.93 806.58 155.24 799.55 152.51 793.47 C 151.08 790.16 147.38 788.69 143.97 788.72 C 135.13 788.63 126.29 788.74 117.46 788.68 C 117.40 799.28 117.47 809.88 117.41 820.48 Z" />
<path fill="#3e4149" opacity="1.00" d=" M 185.71 773.85 C 191.05 773.85 196.39 773.85 201.73 773.85 C 201.87 807.43 201.70 841.01 201.82 874.59 C 196.43 874.60 191.05 874.60 185.67 874.59 C 185.73 841.01 185.64 807.43 185.71 773.85 Z" />
<path fill="#3e4149" opacity="1.00" d=" M 213.89 773.86 C 219.46 773.81 225.04 773.93 230.61 773.77 C 239.38 799.29 246.99 825.23 255.40 850.88 C 255.61 850.88 256.03 850.87 256.24 850.86 C 264.79 825.19 273.45 799.54 282.00 773.87 C 287.68 773.84 293.37 773.85 299.06 773.85 C 287.87 807.54 276.07 841.04 264.56 874.63 C 258.60 874.57 252.64 874.59 246.68 874.61 C 235.80 841.01 224.46 807.55 213.89 773.86 Z" />
<path fill="#3e4149" opacity="1.00" d=" M 325.77 773.84 C 331.62 773.85 337.46 773.85 343.31 773.84 C 354.61 807.40 365.77 841.00 377.07 874.56 C 371.22 874.65 365.37 874.54 359.52 874.64 C 356.79 866.53 354.36 858.33 351.73 850.19 C 339.96 850.12 328.20 850.22 316.43 850.14 C 313.71 858.29 311.16 866.49 308.42 874.64 C 302.46 874.54 296.50 874.65 290.54 874.56 C 302.39 841.03 313.87 807.36 325.77 773.84 M 334.29 796.27 C 330.17 809.46 325.41 822.45 320.91 835.52 C 329.79 835.55 338.67 835.56 347.55 835.52 C 342.96 822.50 339.28 809.14 334.29 796.27 Z" />
<path fill="#3e4149" opacity="1.00" d=" M 371.44 789.20 C 371.16 784.07 371.20 778.92 371.42 773.80 C 395.54 773.92 419.67 773.82 443.79 773.85 C 443.87 778.94 443.88 784.04 443.78 789.13 C 434.32 789.09 424.86 789.17 415.39 789.08 C 415.40 817.58 415.36 846.08 415.42 874.58 C 410.02 874.61 404.62 874.60 399.23 874.59 C 399.32 846.10 399.23 817.61 399.28 789.13 C 390.00 789.16 380.72 789.03 371.44 789.20 Z" />
<path fill="#3e4149" opacity="1.00" d=" M 457.34 780.29 C 461.28 775.34 468.00 773.65 474.08 773.94 C 488.58 774.72 503.14 774.92 517.61 776.21 C 517.54 780.59 517.57 784.98 517.56 789.37 C 503.37 789.38 489.18 789.28 474.99 789.41 C 472.34 789.32 469.56 791.31 469.56 794.12 C 469.16 801.68 469.48 809.27 469.38 816.84 C 483.46 817.36 497.57 817.50 511.64 818.28 C 511.62 822.64 511.60 827.01 511.67 831.38 C 497.55 831.56 483.46 832.42 469.35 832.67 C 469.53 839.84 469.12 847.04 469.55 854.21 C 469.60 857.04 472.00 859.57 474.90 859.45 C 489.12 859.59 503.35 859.47 517.57 859.50 C 517.56 863.88 517.59 868.27 517.52 872.66 C 502.70 873.64 487.86 874.53 473.01 874.87 C 467.87 875.07 462.41 873.96 458.51 870.40 C 454.64 866.76 453.33 861.21 453.35 856.07 C 453.36 836.06 453.38 816.05 453.34 796.04 C 453.18 790.59 453.76 784.66 457.34 780.29 Z" />
<path fill="#3e4149" opacity="1.00" d=" M 569.38 780.45 C 573.01 775.69 579.23 773.89 584.99 773.90 C 599.91 774.65 614.87 774.95 629.77 776.17 C 629.72 780.56 629.71 784.95 629.76 789.34 C 615.48 789.43 601.20 789.22 586.93 789.43 C 583.98 789.36 581.39 791.95 581.62 794.93 C 581.50 802.24 581.59 809.56 581.60 816.88 C 595.62 817.34 609.66 817.51 623.67 818.27 C 623.65 822.64 623.63 827.01 623.70 831.38 C 609.64 831.55 595.61 832.43 581.55 832.65 C 581.67 839.78 581.42 846.92 581.66 854.04 C 581.67 857.07 584.35 859.70 587.42 859.47 C 601.53 859.56 615.64 859.47 629.75 859.51 C 629.72 863.88 629.74 868.26 629.73 872.64 C 614.83 873.68 599.91 874.51 584.98 874.87 C 579.44 875.08 573.40 873.68 569.67 869.31 C 566.24 865.43 565.50 860.04 565.47 855.05 C 565.43 836.04 565.48 817.03 565.45 798.03 C 565.38 792.02 565.43 785.38 569.38 780.45 Z" />
<path fill="#3e4149" opacity="1.00" d=" M 643.65 773.84 C 657.44 773.90 671.24 773.78 685.04 773.89 C 693.88 774.03 703.07 777.12 708.84 784.11 C 716.69 793.50 718.76 806.17 719.48 818.03 C 720.09 832.37 718.96 847.69 711.23 860.19 C 706.01 868.84 696.29 874.35 686.20 874.50 C 672.00 874.73 657.80 874.52 643.61 874.61 C 643.66 841.02 643.58 807.43 643.65 773.84 M 659.54 859.66 C 665.68 859.63 671.81 859.63 677.95 859.65 C 683.67 859.81 690.18 859.86 694.54 855.52 C 701.85 848.42 702.98 837.52 703.48 827.89 C 703.54 817.82 703.53 807.22 699.16 797.94 C 696.66 792.44 691.01 788.72 684.96 788.62 C 676.50 788.40 668.02 788.63 659.56 788.52 C 659.53 812.23 659.56 835.94 659.54 859.66 Z" />
<path fill="#3e4149" opacity="1.00" d=" M 734.28 773.85 C 739.60 773.85 744.92 773.84 750.24 773.86 C 750.31 793.50 750.18 813.14 750.31 832.77 C 750.59 840.27 750.62 848.49 755.13 854.87 C 758.84 859.70 765.45 859.87 771.00 860.20 C 776.94 860.13 783.93 859.94 788.10 855.03 C 792.73 849.48 793.20 841.84 793.65 834.94 C 793.77 814.58 793.63 794.21 793.71 773.85 C 799.08 773.85 804.45 773.85 809.82 773.85 C 809.95 791.53 809.81 809.22 809.89 826.91 C 809.96 837.10 809.74 847.57 806.09 857.22 C 803.77 863.51 799.38 869.32 793.15 872.12 C 784.67 876.02 775.08 875.04 766.02 875.18 C 757.80 875.12 748.57 873.70 743.02 866.98 C 735.94 858.39 734.89 846.67 734.28 835.98 C 734.20 815.27 734.20 794.56 734.28 773.85 Z" />
<path fill="#3e4149" opacity="1.00" d=" M 900.59 874.47 C 912.59 841.02 923.96 807.34 935.85 773.85 C 941.69 773.84 947.53 773.88 953.37 773.82 C 964.80 807.35 975.81 841.03 987.22 874.57 C 981.34 874.63 975.46 874.56 969.58 874.63 C 966.97 866.50 964.39 858.38 961.89 850.23 C 950.10 850.09 938.32 850.22 926.53 850.16 C 923.82 858.30 921.26 866.50 918.50 874.63 C 912.52 874.50 906.55 874.75 900.59 874.47 M 931.02 835.53 C 939.90 835.56 948.78 835.54 957.67 835.54 C 953.29 822.43 948.91 809.33 944.80 796.14 C 939.93 809.17 935.72 822.44 931.02 835.53 Z" />
<path fill="#3e4149" opacity="1.00" d=" M 981.35 789.04 C 981.41 783.95 981.19 778.86 981.50 773.79 C 1005.46 773.97 1029.42 773.75 1053.37 773.89 C 1055.00 776.48 1053.72 780.04 1054.13 783.02 C 1053.77 784.95 1054.96 787.60 1053.31 789.07 C 1044.00 789.19 1034.68 789.12 1025.37 789.08 C 1025.36 817.58 1025.33 846.08 1025.39 874.57 C 1020.02 874.61 1014.66 874.59 1009.31 874.59 C 1009.38 846.09 1009.32 817.60 1009.34 789.10 C 1000.01 789.10 990.67 789.22 981.35 789.04 Z" />
<path fill="#3e4149" opacity="1.00" d=" M 1066.34 874.61 C 1066.47 841.01 1066.18 807.40 1066.49 773.80 C 1071.81 773.89 1077.13 773.83 1082.46 773.85 C 1082.57 807.42 1082.42 841.00 1082.53 874.58 C 1077.13 874.62 1071.73 874.58 1066.34 874.61 Z" />
<path fill="#3e4149" opacity="1.00" d=" M 1121.43 774.57 C 1128.14 773.05 1135.08 773.39 1141.92 773.41 C 1149.64 773.58 1157.91 774.88 1164.03 779.98 C 1169.67 784.67 1172.51 791.78 1174.16 798.75 C 1176.94 811.28 1176.83 824.24 1176.19 837.00 C 1175.10 847.67 1173.38 859.50 1165.28 867.32 C 1157.75 874.45 1146.74 874.91 1136.97 875.13 C 1128.19 874.85 1118.72 874.97 1111.07 870.02 C 1103.64 865.30 1100.33 856.52 1098.70 848.26 C 1096.33 835.13 1096.45 821.66 1097.65 808.42 C 1098.80 799.64 1100.69 790.46 1106.37 783.39 C 1110.08 778.69 1115.63 775.79 1121.43 774.57 M 1128.49 788.76 C 1121.62 789.05 1116.44 794.73 1115.12 801.20 C 1112.34 813.59 1112.43 826.48 1113.48 839.08 C 1114.19 845.06 1115.11 851.84 1119.96 856.02 C 1124.40 859.77 1130.55 859.72 1136.04 859.95 C 1141.60 859.84 1147.69 859.88 1152.42 856.50 C 1156.95 853.16 1158.62 847.38 1159.44 842.07 C 1161.08 829.73 1160.93 817.14 1159.17 804.82 C 1158.14 798.80 1155.60 791.83 1149.24 789.75 C 1142.53 787.80 1135.37 788.23 1128.49 788.76 Z" />
<path fill="#3e4149" opacity="1.00" d=" M 1347.06 779.84 C 1347.90 777.87 1348.09 775.45 1349.67 773.91 C 1355.28 773.69 1360.91 774.00 1366.54 773.77 C 1373.06 791.39 1378.55 809.39 1384.64 827.17 C 1390.05 842.93 1395.12 858.81 1400.56 874.55 C 1394.66 874.64 1388.76 874.60 1382.87 874.57 C 1380.34 866.40 1377.77 858.24 1375.14 850.11 C 1363.38 850.23 1351.62 850.17 1339.86 850.15 C 1337.20 858.30 1334.63 866.49 1331.85 874.61 C 1325.92 874.58 1319.98 874.62 1314.05 874.57 C 1325.05 842.99 1336.08 811.42 1347.06 779.84 M 1356.74 799.70 C 1352.70 811.68 1348.55 823.61 1344.37 835.54 C 1353.23 835.54 1362.11 835.56 1370.98 835.53 C 1366.71 822.70 1362.63 809.80 1358.27 797.00 C 1356.99 796.99 1357.27 798.90 1356.74 799.70 Z" />
<path fill="#3e4149" opacity="1.00" d=" M 1487.97 783.01 C 1492.11 776.20 1500.47 773.58 1508.03 773.32 C 1521.68 772.92 1535.39 774.13 1548.77 776.86 C 1548.75 781.10 1548.73 785.34 1548.80 789.59 C 1536.51 789.03 1524.22 788.26 1511.92 788.21 C 1508.54 788.22 1504.61 788.58 1502.39 791.46 C 1499.80 794.71 1500.53 799.13 1500.39 802.99 C 1500.48 806.84 1499.85 811.30 1502.64 814.43 C 1505.34 817.07 1509.44 816.80 1512.95 817.09 C 1519.61 816.98 1526.29 817.01 1532.97 817.18 C 1540.03 817.43 1546.87 821.78 1549.70 828.34 C 1553.17 835.75 1552.32 844.09 1552.36 852.02 C 1552.23 859.50 1549.40 867.68 1542.63 871.64 C 1534.60 876.37 1524.86 875.75 1515.91 875.42 C 1506.30 874.87 1496.65 874.12 1487.30 871.75 C 1487.28 867.52 1487.28 863.30 1487.30 859.09 C 1500.20 859.77 1513.11 860.92 1526.04 860.36 C 1529.40 859.99 1533.15 858.85 1535.02 855.78 C 1537.06 852.19 1536.14 847.87 1536.34 843.93 C 1536.41 840.26 1535.57 835.81 1531.93 834.04 C 1527.88 832.29 1523.33 832.95 1519.06 832.83 C 1510.55 832.63 1501.27 834.07 1493.70 829.25 C 1486.77 825.12 1484.27 816.66 1484.26 809.04 C 1484.41 800.32 1483.09 790.78 1487.97 783.01 Z" />
<path fill="#3e4149" opacity="1.00" d=" M 1566.67 773.85 C 1572.03 773.85 1577.40 773.85 1582.77 773.85 C 1582.90 807.43 1582.75 841.01 1582.85 874.60 C 1577.43 874.59 1572.02 874.61 1566.62 874.57 C 1566.69 841.00 1566.59 807.42 1566.67 773.85 Z" />
<path fill="#3e4149" opacity="1.00" d=" M 1606.42 777.38 C 1613.38 772.90 1621.98 773.11 1629.95 773.27 C 1640.55 773.60 1651.17 774.68 1661.56 776.85 C 1661.56 781.09 1661.55 785.33 1661.59 789.58 C 1649.06 789.05 1636.53 788.20 1623.98 788.23 C 1620.67 788.29 1616.78 788.92 1614.88 791.96 C 1612.48 795.86 1613.36 800.64 1613.18 804.99 C 1613.16 808.59 1613.27 813.06 1616.58 815.32 C 1620.98 817.72 1626.19 816.62 1630.99 816.93 C 1639.66 817.27 1649.49 815.48 1656.91 821.14 C 1664.11 826.66 1665.50 836.49 1665.32 844.99 C 1665.51 853.05 1665.22 862.13 1659.46 868.43 C 1653.75 874.51 1644.90 875.62 1637.00 875.66 C 1624.67 875.38 1612.24 874.71 1600.23 871.77 C 1600.20 867.54 1600.21 863.32 1600.23 859.11 C 1613.12 859.76 1626.03 860.93 1638.95 860.36 C 1643.00 860.01 1647.77 858.09 1648.74 853.68 C 1649.45 849.21 1649.28 844.59 1648.83 840.10 C 1648.54 836.48 1645.48 833.50 1641.91 833.17 C 1633.40 832.26 1624.81 833.34 1616.30 832.60 C 1609.38 831.78 1602.50 827.92 1599.60 821.36 C 1596.15 814.05 1597.43 805.77 1597.19 797.96 C 1596.97 790.26 1599.49 781.60 1606.42 777.38 Z" />
<path fill="#3e4149" opacity="1.00" d=" M 1672.56 773.85 C 1696.77 773.86 1720.98 773.85 1745.19 773.85 C 1745.21 778.94 1745.21 784.03 1745.19 789.12 C 1735.62 789.10 1726.06 789.19 1716.50 789.06 C 1716.54 817.56 1716.45 846.07 1716.54 874.58 C 1711.13 874.61 1705.72 874.59 1700.32 874.59 C 1700.39 846.09 1700.34 817.59 1700.35 789.09 C 1691.08 789.15 1681.82 789.11 1672.56 789.13 C 1672.50 784.03 1672.49 778.94 1672.56 773.85 Z" />
<path fill="#3e4149" opacity="1.00" d=" M 1772.78 773.84 C 1778.61 773.86 1784.45 773.86 1790.30 773.83 C 1801.66 807.37 1812.73 841.01 1824.09 874.55 C 1818.21 874.65 1812.34 874.55 1806.48 874.63 C 1803.86 866.50 1801.30 858.34 1798.76 850.19 C 1787.00 850.12 1775.24 850.24 1763.48 850.13 C 1760.67 858.26 1758.18 866.49 1755.43 874.64 C 1749.45 874.53 1743.47 874.67 1737.50 874.55 C 1749.45 841.05 1760.85 807.35 1772.78 773.84 M 1779.33 802.54 C 1775.53 813.53 1771.79 824.53 1767.95 835.51 C 1776.83 835.57 1785.71 835.55 1794.59 835.53 C 1790.21 822.66 1785.99 809.74 1781.87 796.80 C 1780.34 798.34 1780.06 800.58 1779.33 802.54 Z" />
<path fill="#3e4149" opacity="1.00" d=" M 1835.71 773.85 C 1841.09 773.85 1846.48 773.85 1851.87 773.85 C 1866.81 797.41 1881.74 820.98 1896.60 844.60 C 1896.85 821.02 1896.60 797.43 1896.72 773.85 C 1901.98 774.04 1907.32 773.46 1912.54 774.11 C 1912.74 807.61 1912.54 841.11 1912.64 874.61 C 1907.33 874.60 1902.04 874.58 1896.75 874.62 C 1881.68 851.25 1866.93 827.68 1851.77 804.37 C 1851.80 827.78 1851.72 851.18 1851.82 874.59 C 1846.43 874.59 1841.05 874.61 1835.67 874.58 C 1835.74 841.00 1835.65 807.43 1835.71 773.85 Z" />
<path fill="#3e4149" opacity="1.00" d=" M 2012.24 779.22 C 2016.03 775.27 2021.72 773.87 2027.05 773.90 C 2041.89 774.69 2056.78 774.93 2071.59 776.20 C 2071.53 780.58 2071.55 784.97 2071.56 789.36 C 2057.40 789.38 2043.24 789.28 2029.09 789.40 C 2026.25 789.25 2023.48 791.42 2023.46 794.36 C 2023.18 801.84 2023.44 809.33 2023.34 816.81 C 2037.39 817.44 2051.47 817.44 2065.51 818.29 C 2065.47 822.65 2065.46 827.02 2065.52 831.39 C 2051.44 831.55 2037.39 832.41 2023.32 832.68 C 2023.45 839.66 2023.22 846.64 2023.41 853.63 C 2023.36 856.71 2025.73 859.66 2028.99 859.45 C 2043.17 859.58 2057.37 859.48 2071.56 859.50 C 2071.54 863.86 2071.54 868.23 2071.57 872.60 C 2059.40 873.59 2047.19 874.10 2035.00 874.64 C 2028.47 874.70 2021.42 875.87 2015.47 872.53 C 2009.82 869.64 2007.32 863.02 2007.32 856.98 C 2007.23 835.98 2007.30 814.98 2007.28 793.98 C 2007.17 788.71 2008.45 783.09 2012.24 779.22 Z" />
<path fill="#3e4149" opacity="1.00" d=" M 2217.37 774.54 C 2224.77 772.95 2232.41 773.36 2239.93 773.50 C 2248.54 773.81 2257.91 776.36 2263.32 783.56 C 2270.45 793.12 2271.47 805.53 2272.28 817.03 C 2272.59 830.18 2272.59 843.75 2268.13 856.31 C 2265.41 864.14 2259.12 870.84 2250.98 873.01 C 2241.57 875.61 2231.62 875.31 2221.97 874.61 C 2214.65 874.07 2206.99 871.62 2202.10 865.87 C 2196.99 859.81 2195.02 851.87 2193.81 844.22 C 2192.60 833.87 2192.13 823.41 2193.11 813.03 C 2193.83 803.34 2195.43 793.21 2200.97 785.00 C 2204.67 779.38 2210.88 775.86 2217.37 774.54 M 2220.40 789.63 C 2213.43 791.72 2210.94 799.44 2209.92 805.88 C 2208.33 817.53 2208.35 829.39 2209.51 841.09 C 2210.30 846.92 2211.77 853.53 2217.05 856.97 C 2222.73 860.40 2229.70 859.86 2236.09 859.82 C 2241.91 859.74 2248.58 858.09 2251.75 852.71 C 2256.24 844.97 2255.90 835.66 2256.33 827.02 C 2256.13 817.08 2256.55 806.70 2252.79 797.32 C 2250.96 792.42 2246.14 789.21 2241.02 788.82 C 2234.18 788.19 2227.09 787.85 2220.40 789.63 Z" />
<path fill="#3e4149" opacity="1.00" d=" M 2282.27 874.60 C 2285.19 841.02 2287.47 807.37 2290.53 773.80 C 2297.83 773.89 2305.13 773.86 2312.44 773.82 C 2319.56 798.23 2325.73 822.94 2332.97 847.31 C 2339.53 822.93 2346.31 798.61 2352.67 774.18 C 2359.95 773.40 2367.29 774.14 2374.61 773.75 C 2376.32 784.75 2376.63 795.95 2377.87 807.03 C 2379.79 829.56 2381.83 852.08 2383.76 874.61 C 2378.41 874.58 2373.07 874.62 2367.74 874.58 C 2366.42 857.38 2364.74 840.22 2363.26 823.04 C 2362.50 816.30 2362.44 809.48 2361.19 802.79 C 2355.04 826.82 2348.27 850.68 2341.81 874.63 C 2335.98 874.57 2330.16 874.58 2324.34 874.62 C 2317.42 850.80 2311.16 826.78 2303.96 803.05 C 2302.08 826.89 2300.15 850.74 2298.28 874.59 C 2292.94 874.60 2287.60 874.59 2282.27 874.60 Z" />
<path fill="#3e4149" opacity="1.00" d=" M 2403.33 786.92 C 2403.56 782.52 2403.85 778.13 2404.57 773.79 C 2411.84 773.91 2419.12 773.84 2426.41 773.83 C 2433.48 798.29 2439.76 822.97 2446.90 847.40 C 2453.61 822.90 2460.12 798.35 2466.87 773.86 C 2474.15 773.84 2481.44 773.86 2488.74 773.85 C 2492.09 807.39 2494.60 841.02 2497.78 874.59 C 2492.42 874.60 2487.07 874.60 2481.74 874.59 C 2479.57 850.62 2477.78 826.60 2475.23 802.68 C 2468.95 826.71 2462.26 850.63 2455.78 874.60 C 2449.92 874.59 2444.07 874.60 2438.23 874.60 C 2431.48 850.63 2424.86 826.62 2417.94 802.70 C 2416.12 826.66 2414.01 850.60 2412.31 874.57 C 2406.96 874.62 2401.62 874.58 2396.29 874.60 C 2398.61 845.37 2400.94 816.14 2403.33 786.92 Z" />
<path fill="#3e4149" opacity="1.00" d=" M 2513.26 773.91 C 2518.56 773.79 2523.87 773.86 2529.19 773.86 C 2529.23 807.43 2529.17 840.99 2529.22 874.56 C 2523.88 874.63 2518.55 874.59 2513.22 874.59 C 2513.30 841.03 2513.22 807.47 2513.26 773.91 Z" />
<path fill="#3e4149" opacity="1.00" d=" M 2541.19 773.85 C 2565.30 773.81 2589.42 773.94 2613.53 773.78 C 2613.85 778.87 2613.62 783.96 2613.69 789.06 C 2604.07 789.24 2594.46 789.01 2584.85 789.18 C 2584.89 817.65 2584.80 846.12 2584.90 874.59 C 2579.53 874.59 2574.17 874.62 2568.82 874.57 C 2568.86 846.08 2568.83 817.59 2568.84 789.10 C 2559.81 789.09 2550.78 789.21 2541.77 789.07 C 2540.29 788.18 2541.23 786.31 2541.07 784.99 C 2541.18 781.27 2541.07 777.55 2541.19 773.85 Z" />
<path fill="#3e4149" opacity="1.00" d=" M 2621.65 773.86 C 2645.91 773.84 2670.17 773.86 2694.43 773.85 C 2694.48 778.94 2694.48 784.03 2694.43 789.13 C 2684.84 789.10 2675.26 789.16 2665.69 789.09 C 2665.69 817.59 2665.65 846.10 2665.71 874.60 C 2660.32 874.59 2654.95 874.60 2649.59 874.59 C 2649.64 846.09 2649.59 817.60 2649.61 789.10 C 2640.29 789.14 2630.97 789.12 2621.65 789.12 C 2621.59 784.03 2621.60 778.94 2621.65 773.86 Z" />
<path fill="#3e4149" opacity="1.00" d=" M 2708.47 779.46 C 2712.10 775.43 2717.73 773.98 2722.99 773.89 C 2737.94 774.60 2752.91 775.03 2767.85 776.11 C 2767.85 780.52 2767.82 784.93 2767.87 789.34 C 2753.93 789.38 2739.98 789.31 2726.05 789.37 C 2723.22 789.21 2720.08 790.91 2719.93 793.99 C 2719.60 801.56 2719.90 809.16 2719.79 816.75 C 2733.81 817.58 2747.88 817.35 2761.90 818.29 C 2761.82 822.68 2761.90 827.06 2761.83 831.45 C 2747.80 831.49 2733.80 832.43 2719.78 832.69 C 2719.89 839.84 2719.62 846.99 2719.90 854.13 C 2720.00 857.00 2722.44 859.61 2725.42 859.46 C 2739.56 859.59 2753.72 859.45 2767.87 859.51 C 2767.82 863.89 2767.85 868.27 2767.83 872.65 C 2753.22 873.66 2738.60 874.48 2723.97 874.87 C 2718.61 875.09 2712.79 874.11 2708.81 870.25 C 2704.91 866.62 2703.78 861.08 2703.71 855.97 C 2703.71 835.31 2703.72 814.65 2703.71 793.99 C 2703.76 788.84 2704.74 783.29 2708.47 779.46 Z" />
<path fill="#3e4149" opacity="1.00" d=" M 2786.34 779.44 C 2790.01 775.39 2795.68 773.95 2800.99 773.90 C 2815.90 774.62 2830.85 774.99 2845.75 776.14 C 2845.70 780.54 2845.70 784.94 2845.75 789.34 C 2832.13 789.37 2818.51 789.35 2804.90 789.34 C 2802.65 789.35 2799.95 789.52 2798.64 791.61 C 2797.48 793.14 2797.67 795.12 2797.65 796.93 C 2797.68 803.56 2797.66 810.19 2797.67 816.83 C 2811.70 817.41 2825.76 817.45 2839.79 818.29 C 2839.74 822.65 2839.72 827.01 2839.82 831.38 C 2825.75 831.57 2811.71 832.41 2797.65 832.67 C 2797.74 839.79 2797.55 846.92 2797.73 854.04 C 2797.74 856.99 2800.33 859.62 2803.34 859.47 C 2817.46 859.55 2831.59 859.50 2845.72 859.48 C 2845.72 863.87 2845.73 868.26 2845.71 872.65 C 2831.50 873.63 2817.28 874.42 2803.05 874.84 C 2798.23 875.02 2793.13 874.77 2788.98 872.06 C 2783.82 869.01 2781.64 862.75 2781.63 857.03 C 2781.57 836.02 2781.63 815.01 2781.59 794.00 C 2781.53 788.84 2782.63 783.28 2786.34 779.44 Z" />
</g>
</svg>
