<?xml version="1.0" encoding="utf-8"?>
<!-- Generator: Adobe Illustrator 21.0.2, SVG Export Plug-In . SVG Version: 6.00 Build 0)  -->
<svg version="1.1" id="Layer_1" xmlns="http://www.w3.org/2000/svg" xmlns:xlink="http://www.w3.org/1999/xlink" x="0px" y="0px"
	 viewBox="0 0 864 864" style="enable-background:new 0 0 864 864;" xml:space="preserve">
<style type="text/css">
	.st0{fill:#A7D9B8;}
	.st1{fill:#F23539;}
</style>
<g>
	<g>
		<path class="st0" d="M218.8,273c1.2,0,2.9,2.7,2.9,4.4c0,0.5-0.5,1.2-1.7,2c-4.2,1.2-6.6,5.1-7.6,11.3c-1.2,7.1-2.7,31.9-4.4,73.8
			c1.5,11,10.5,8.3,10.5,13c0,3.7-9.1,0.7-11.5,10.5c0,3.4,0,9.3-0.2,17.4c-0.2,8.3-0.2,15.2-0.2,20.3c0,12.7,0.2,19.8,1,21.3
			c0.7,3.7,6.4,3.7,8.8,3.7c0.7,0,1.2,1,1.2,2.7c0,2.9-1.2,4.4-3.7,4.4h-5.6c-25.7,0-41.9,0.7-48.5,2.2c-0.7,0-1.5,0.2-1.7,0.2
			c-1.2,0-2-0.5-2.4-1.7c0-6.4,6.6-6.6,7.4-7.4c1.7-0.5,3.7-23,5.6-67.6c-11-0.5-22.8-0.7-35.5-0.7c-6.1,0-10.5,0-13.2,0.2v0.5
			c0,2.7,0,7.4-0.2,13.5c-0.2,6.4-0.2,11.5-0.2,15.7c0,25.2,2.7,38.2,8.1,39c3.2,0.2,6.4,3.2,6.4,5.9c-0.2,1.7-1.2,2.5-2.9,2.5
			c0.2,0-11.3-1.7-34.1-1.7c-11.8,0-18.6,0.2-20.8,1c-2,0.7-3.9,1.2-5.9,1.2c-2.2,0-3.4-1-3.4-2.9c0-2.7,0.7-4.2,2-4.4
			c8.6-1.2,9.6-4.9,9.6-14.7c0-14,0.2-29.2,0.7-45.1c0-1,0.2-3.7,0.2-4.7c-1.5-10.8-10.3-9.8-10.3-13.5c0-4.9,9.6,0,11-12.3
			c0.2-9.6,0.7-20.1,1-31.1c0.2-11,0.7-19.8,1-26c0.2-6.1,0.2-9.6,0.2-10v-3.7c0-5.9-1-8.8-3.2-8.8c-0.7,0-3.2,0.5-4.4,0.5
			c-2.2,0-3.4-1.5-3.4-4.2c0.2-2.2,2.2-4.7,4.4-4.7h0.2c2,0.2,8.3,0.2,18.9,0.2h23.5c7.8,0,16.2-1.2,16.4-1.2c2.7,0,3.9,1.5,3.9,4.4
			c0,3.2-3.7,5.1-10.8,5.4c-2.9,0.2-4.9,10-6.1,29.6c-1.2,19.8-1.7,39.9-1.7,60.8c13-0.2,23.8-0.5,32.1-0.5c7.6,0,13.2,0,16.9,0.2
			c1.7-43.4,2.7-67.1,2.7-71.1c0-5.1-0.2-9.3-0.5-13c-0.7-5.1-3.2-7.8-7.6-7.8c-3.7,0-5.6-1.5-5.6-4.4c0-3.4,1.2-5.1,3.4-5.1
			c0.5,0,1.2,0.2,2.2,0.5c5.1,1.7,14,2.7,26,2.7c13,0,22.8-1,29.2-2.7H218.8z"/>
		<path class="st0" d="M372.4,274.7l-0.2,0.5v0.5c-4.2,9.1-5.1,22.5-5.6,28.7c-0.2,3.2-1,4.7-2.2,4.7h-0.7c-4.2,0-6.4-1.5-6.4-4.7
			c0-0.2,0.2-2.2,0.2-3.9c0-12.5-7.8-20.1-22.5-20.1c-3.9,0-15.4-0.7-22.1-0.7c-5.4,0-8.3,2.9-8.6,9.1c-1,16.2-1.5,40.2-1.5,72
			c4.9,0,10.8,0,17.9-0.2H333c8.6,0,15.4-11,17.2-11c0.7,0,1.2,1.7,1.2,4.9c0,2.9-0.5,10-0.5,11.3s0.5,7.4,0.5,9.6
			c0,2.7-0.5,4.2-1.2,4.2c-0.5,0-2.7-2-6.4-5.9c-3.7-3.7-7.1-5.6-10.3-5.6c-2.9,0-13.2,0.5-30.6,1.2c0,31.1,0.5,52.4,1.2,63.7
			c0.2,6.4,1.7,10.5,4.4,12.5c2.7,2.2,8.3,3.2,17.2,3.4c7.6,0,15.2-2.7,22.8-8.3c7.4-5.4,11.3-12,12-19.8c0-2.2,1.5-3.4,4.7-3.4
			s4.9,1.2,4.9,3.4c0,24.5-2.9,36.8-8.8,36.8c-2.9,0-8.8,0-17.9-0.2c-9.1-0.2-16.4-0.5-22.1-0.5c-39,0-60.5,1.2-65.2,3.9h-0.2
			c-1.2,0.2-2.2,0.5-2.5,0.5c-1.5,0-2.2-1.2-2.2-3.4c0-2.7,1-4.2,2.7-4.4c3.2-1,5.4-1.5,6.9-1.5c0-0.5,1.5-39.4,1.5-64
			c0-9.8-10.5-9.3-10.5-12.3v-0.2c0-3.9,10.8-0.7,10.8-14.7c0-39-1.5-65.7-4.2-80.4c-0.2-1.2-2-2-5.1-2h-1.7c-1.7,0-2.4-1.2-2.4-3.4
			c0-2,0.7-2.9,2.2-3.2c4.2-0.7,13.7-1,28.9-1c4.2,0,15.4,0.2,33.6,0.7c18.1,0.5,36.5,0.7,55.4,0.7C371.2,272,372.4,273,372.4,274.7
			z"/>
		<path class="st0" d="M513.8,426.1c0,3.2-0.5,7.4-1.5,12.7c-1,5.6-2.5,9.6-4.4,11.8c-2.7,2.7-6.4,4.4-11.3,4.7
			c-3.7,0.2-13.2,0.2-29.2,0.5c-15.9,0.2-31.1,0.2-45.3,0.5c-14.5,0.2-22.1,0.2-23,0.5c-2,0-3.2-1.5-3.4-4.7c0-2.7,1.2-3.9,3.9-3.9
			c6.6,0,7.6-2.5,7.8-11.3c0-6.6,0.2-23.8,1-51.2c-2.2-9.8-10.5-7.6-10.5-11.5v-0.2c0-4.9,9.8,0.2,11.3-12.7c0-5.9,0-15.4,0.2-28.9
			v-32.3c-0.7-23.3-0.5-21.3-8.8-22.5h-0.5c-2.2,0-4.4-2.7-4.4-5.4c0.2-1.7,1.2-2.5,3.2-2.5c1.7,0,9.3,0.2,16.2,0.2
			c4.9,0,11.3,0,19.1-0.2s13-0.2,15.7-0.2c9.1,0,13.7,0.7,13.7,2.2c0,5.1-4.7,5.6-7.6,5.6l-1.5,0.2c-4.2,0.7-6.1,28.2-6.1,81.8
			c0,14,11.5,12.5,11.5,15.9c0,4.7-9.8,0.2-11.3,13.2c0.2,16.4,1,36,1.2,46.1c0.2,5.1,0.2,7.8,0.2,8.6c0.2,3.4,2,5.1,5.6,5.4
			c13.5,0,20.8-0.5,30.4-3.2c9.6-2.7,14.9-8.6,16.9-18.1c0.7-3.4,2.9-5.1,7.1-5.1c0.2,0,1.2,0.2,1.5,0.2
			C513.1,422.7,513.8,423.9,513.8,426.1z"/>
		<path class="st0" d="M644.2,426.1c0,3.2-0.5,7.4-1.5,12.7c-1,5.6-2.4,9.6-4.4,11.8c-2.7,2.7-6.4,4.4-11.3,4.7
			c-3.7,0.2-13.2,0.2-29.2,0.5c-15.9,0.2-31.1,0.2-45.3,0.5c-14.5,0.2-22.1,0.2-23,0.5c-2,0-3.2-1.5-3.4-4.7c0-2.7,1.2-3.9,3.9-3.9
			c6.6,0,7.6-2.5,7.8-11.3c0-6.6,0.2-23.8,1-51.2c-2.2-9.8-10.5-7.6-10.5-11.5v-0.2c0-4.9,9.8,0.2,11.3-12.7c0-5.9,0-15.4,0.2-28.9
			v-32.3c-0.7-23.3-0.5-21.3-8.8-22.5h-0.5c-2.2,0-4.4-2.7-4.4-5.4c0.2-1.7,1.2-2.5,3.2-2.5c1.7,0,9.3,0.2,16.2,0.2
			c4.9,0,11.3,0,19.1-0.2s13-0.2,15.7-0.2c9.1,0,13.7,0.7,13.7,2.2c0,5.1-4.7,5.6-7.6,5.6l-1.5,0.2c-4.2,0.7-6.1,28.2-6.1,81.8
			c0,14,11.5,12.5,11.5,15.9c0,4.7-9.8,0.2-11.3,13.2c0.2,16.4,1,36,1.2,46.1c0.2,5.1,0.2,7.8,0.2,8.6c0.2,3.4,2,5.1,5.6,5.4
			c13.5,0,20.8-0.5,30.4-3.2c9.6-2.7,14.9-8.6,16.9-18.1c0.7-3.4,2.9-5.1,7.1-5.1c0.2,0,1.2,0.2,1.5,0.2
			C643.4,422.7,644.2,423.9,644.2,426.1z"/>
		<path class="st0" d="M789,375.4v0.2c-0.5,3.7-9.1,0.5-11.8,9.8c-2.7,18.4-6.9,33.3-15.7,49c-4.4,8.1-10.5,14.2-18.1,18.9
			c-7.6,4.9-16.7,7.1-27,7.1s-19.4-1.7-27.2-5.4c-15.9-7.1-24.3-17.4-30.1-32.1c-5.9-14.7-7.1-26.2-7.8-39.7c-1-2.7-2.9-4.7-5.6-5.9
			c-2.9-1.2-4.4-2.5-4.4-3.7c0-1.2,1.5-2.2,4.4-3.2c2.7-0.7,4.7-2.5,5.9-5.1c0-19.8,5.1-41.4,15.9-60.5
			c10.5-19.1,30.1-32.3,53.9-32.3c45.8,0,57.8,50,57.8,88.9C779.7,371.5,789,372.4,789,375.4z M740.5,359.9
			c0-52.9-3.9-80.1-18.6-80.1c-11.8,0-20.6,13.5-24.5,32.6c-4.2,19.1-5.9,37-5.9,53.9c0,16.9,1,32.3,4.2,52.7
			c2.9,20.6,10.5,34.3,21.1,34.3C732.6,453.3,740.5,422.2,740.5,359.9z"/>
	</g>
	<g>
		<path class="st1" d="M100.3,505.1c5.5,0,10.3,1.1,14.4,3.3c4.1,2.2,7.6,5,10.4,8.3c2.8,3.4,4.9,7.1,6.3,11.2
			c1.4,4.1,2.1,8.1,2.1,12c0,4.4-0.7,8.6-2.1,12.8c-1.4,4.2-3.5,7.9-6.2,11.2c-2.7,3.3-6.2,6-10.3,8c-4.1,2-9,3.1-14.5,3.1
			c-1.8,0-3.6-0.1-5.5-0.3c-1.9-0.2-3.8-0.4-5.6-0.7v23.8H72.6v-28.8v-16v-25.7v-16c1.5-0.8,3.3-1.6,5.4-2.4
			c2.1-0.7,4.4-1.4,6.9-1.9c2.5-0.6,5.1-1,7.7-1.3C95.4,505.3,97.9,505.1,100.3,505.1z M117.9,539.9c0-2-0.3-4.4-1-7
			c-0.6-2.6-1.6-5.1-3-7.4c-1.3-2.3-3.1-4.2-5.2-5.8c-2.1-1.6-4.7-2.4-7.8-2.4c-1.9,0-3.5,0.1-4.9,0.4c-1.4,0.3-2.7,0.6-3.7,0.8
			c-1.2,0.4-2.3,0.8-3.2,1.3v41.3c1,0.3,2.1,0.6,3.3,0.8c1,0.2,2.3,0.4,3.8,0.6c1.5,0.2,3.1,0.3,4.7,0.3c3.1,0,5.6-0.6,7.8-1.8
			c2.1-1.2,3.9-2.8,5.3-4.9c1.4-2.1,2.4-4.5,3-7.3C117.6,546,117.9,543,117.9,539.9z"/>
		<path class="st1" d="M208.8,575.2c0.5,1.1,1.2,2.9,2.3,5.3c1.1,2.5,2.2,5,3.3,7.6c1.3,3.1,2.7,6.3,4.3,9.6H201
			c-0.4-1-0.9-2.3-1.7-3.9c-0.6-1.3-1.5-3-2.4-5.1c-1-2.1-2.2-4.8-3.5-7.9c-0.9-1.9-2.1-3.2-3.5-4.1c-1.4-0.9-2.8-1.5-4.2-1.9
			c-1.7-0.4-3.3-0.6-5-0.6h-11.8v5.1v18.3h-16.5v-86.4c1.5-0.8,3.3-1.6,5.4-2.4c2.1-0.7,4.4-1.4,6.9-1.9c2.5-0.6,5.1-1,7.7-1.3
			c2.6-0.3,5.2-0.5,7.6-0.5c5.5,0,10.3,1.1,14.4,3.3c4.1,2.2,7.6,5,10.4,8.3c2.8,3.4,4.9,7.1,6.3,11.2c1.4,4.1,2.1,8.1,2.1,12
			c0,5.1-0.9,10-2.7,14.8c-1.8,4.8-4.7,8.8-8.5,12.2c1.9,1.1,3.5,2.5,4.5,4C207.4,572.4,208.3,573.9,208.8,575.2z M180.7,561.7
			c3.1,0,5.6-0.5,7.8-1.6c2.1-1.1,3.9-2.6,5.3-4.5c1.4-1.9,2.4-4.3,3-6.9c0.6-2.7,0.9-5.6,0.9-8.8c0-2-0.3-4.4-1-7
			c-0.6-2.6-1.6-5.1-3-7.4c-1.3-2.3-3.1-4.2-5.2-5.8c-2.1-1.6-4.7-2.4-7.8-2.4c-1.9,0-3.5,0.1-4.9,0.4c-1.4,0.3-2.7,0.6-3.7,0.8
			c-1.2,0.4-2.3,0.8-3.2,1.3v41.8H180.7z"/>
		<path class="st1" d="M286.1,523.6c-3.5-1.7-6.7-3-9.7-4c-2.9-1-6.4-1.5-10.5-1.5c-3.8,0-7,0.3-9.7,0.9c-2.6,0.6-4.8,1.4-6.5,2.4
			c-1.7,1-2.9,2.1-3.7,3.3c-0.8,1.3-1.2,2.5-1.2,3.8c0,1.9,0.7,3.8,2.2,5.6c1.5,1.8,3.6,3.3,6.3,4.5c2.7,1.3,5.9,2.2,9.5,3
			c3.7,0.7,7.7,1.1,12.2,1.1v15c-9.2,0-16.4,1.3-21.5,3.8c-5.2,2.5-7.8,6-7.8,10.4c0,2.3,0.6,4.3,1.7,5.9c1.2,1.6,2.7,2.9,4.6,4
			c1.9,1,4.1,1.8,6.5,2.2c2.4,0.5,4.8,0.7,7.2,0.7c3.9,0,7.5-0.5,10.8-1.4c3.3-0.9,6.7-2.6,10.1-5.1l6.3,14.2c-3.2,2-7.3,3.7-12.2,5
			c-4.9,1.3-10.2,1.9-15.9,1.9c-4.9,0-9.4-0.6-13.4-1.7c-4-1.2-7.5-2.8-10.4-4.9c-2.9-2.1-5.1-4.7-6.7-7.7c-1.6-3-2.4-6.4-2.4-10.2
			c0-5.5,1.5-10.3,4.5-14.6c3-4.3,8.1-7.6,15.4-10c-6.9-2.1-11.9-5.3-15.1-9.4c-3.2-4.2-4.8-8.6-4.8-13.2c0-7.5,2.8-13.4,8.5-17.6
			c5.6-4.2,13.8-6.3,24.6-6.3c4.7,0,9.5,0.4,14.4,1.3c4.9,0.9,8.9,2.4,12.2,4.7L286.1,523.6z"/>
		<path class="st1" d="M363.9,511.7l-6,13.5c-7.1-4.1-13.1-6.6-18-7.4c-4.9-0.9-8.8-0.9-11.7-0.1c-3,0.8-5.1,2.2-6.3,4
			c-1.3,1.9-1.9,3.4-1.9,4.7c0,4,1.1,7.1,3.4,9.4c2.3,2.3,5.1,4.1,8.5,5.6c3.4,1.5,7.1,2.9,11,4.2c3.9,1.3,7.6,2.9,11,4.9
			c3.4,2,6.3,4.6,8.5,7.9c2.3,3.3,3.4,7.7,3.4,13.1c0,3.5-0.7,6.9-2.2,10.1c-1.4,3.2-3.5,6.1-6.2,8.7c-2.7,2.5-6,4.6-10.1,6.1
			c-4,1.5-8.6,2.3-13.7,2.3c-4.1,0-8.1-0.5-12-1.4c-3.9-0.9-7.4-1.9-10.4-2.9c-1.9-0.7-3.6-1.5-5.3-2.2c-1.7-0.7-3.4-1.5-4.9-2.3
			l6.1-14.2c0.6,0.5,1.8,1.1,3.4,1.9c1.6,0.8,3.5,1.6,5.7,2.4c2.2,0.8,4.6,1.6,7.3,2.2c2.7,0.6,5.5,0.9,8.3,0.9
			c2.1,0,4.2-0.3,6.3-0.8c2.1-0.6,4-1.3,5.6-2.2c1.7-0.9,3-2,4-3.3c1-1.3,1.5-2.6,1.5-4c0-3.1-1.1-5.7-3.3-7.6
			c-2.2-1.9-5-3.7-8.3-5.2c-3.3-1.5-6.9-3-10.8-4.4c-3.8-1.4-7.4-3.2-10.8-5.4c-3.3-2.2-6.1-4.9-8.3-8.2c-2.2-3.3-3.3-7.5-3.3-12.7
			c0-3.4,0.8-6.7,2.4-9.9c1.6-3.1,3.8-5.9,6.5-8.2c2.8-2.3,6-4.2,9.8-5.6c3.8-1.4,7.9-2.1,12.3-2.1c3.7,0,7.9,0.6,12.7,1.7
			C353.2,506.3,358.3,508.4,363.9,511.7z"/>
		<path class="st1" d="M448.1,528.1l-14.5,6.4c-0.5-0.9-1.2-2.3-2.2-4c-1-1.8-2.3-3.5-4-5.3c-1.7-1.8-3.6-3.4-5.9-4.7
			c-2.3-1.3-4.9-2-8-2c-3.6,0-6.9,1-9.8,3.1c-2.9,2-5.4,4.7-7.4,8.1c-2,3.3-3.6,7.1-4.7,11.3c-1.1,4.2-1.7,8.5-1.7,12.9
			c0,8,1.5,14.5,4.6,19.5c3.1,5,7,8.5,11.8,10.4c4.8,1.9,10.2,2.3,16.3,1.2c6-1.2,12-3.9,17.9-8.1l7.5,12c-2.8,2.1-5.4,3.9-7.8,5.3
			c-2.4,1.4-5,2.5-7.8,3.3c-2.8,0.8-5.9,1.4-9.4,1.7c-3.5,0.3-7.7,0.5-12.6,0.5c-3,0-6.6-0.7-11-2.1c-4.4-1.4-8.5-3.7-12.5-7
			c-4-3.3-7.4-7.7-10.2-13.2c-2.8-5.5-4.2-12.4-4.2-20.6c0-0.6,0-2.4,0.1-5.3c0-2.9,0.4-6.3,1-10.2c0.6-3.9,1.8-8.1,3.3-12.5
			c1.6-4.4,3.9-8.5,6.9-12.2c3-3.7,6.9-6.8,11.7-9.2c4.8-2.5,10.7-3.7,17.8-3.7c2.7,0,5.6,0.3,8.8,0.8c3.2,0.6,6.4,1.7,9.6,3.4
			c3.2,1.7,6.2,4.2,9,7.5C443.8,518.4,446.2,522.7,448.1,528.1z"/>
		<path class="st1" d="M532.4,597.7h-17.1v-21.8c-2.6,1.4-5.6,2.5-8.9,3.3c-3.3,0.8-6.6,1.2-9.7,1.2c-3.2,0-6.4-0.4-9.7-1.2
			c-3.3-0.8-6.3-1.9-8.9-3.3v21.8H461v-92.5h17.1v55.4c2.6,1.4,5.6,2.5,8.9,3.4c3.3,0.9,6.6,1.3,9.7,1.3c3.1,0,6.4-0.4,9.7-1.3
			c3.3-0.9,6.3-2,8.9-3.4v-55.4h17.1V597.7z"/>
		<path class="st1" d="M589.6,503.6c5.4,0,10.4,1.2,15.1,3.7c4.7,2.5,8.8,5.8,12.3,10.1c3.5,4.3,6.2,9.4,8.3,15.1
			c2,5.8,3.1,12,3.1,18.6c0,7.5-0.8,14.2-2.4,20.2c-1.6,6-4,11-7.2,15.1c-3.2,4.1-7.3,7.3-12.2,9.5c-4.9,2.2-10.5,3.3-17,3.3
			c-6.6,0-12.3-1.1-17.1-3.3c-4.8-2.2-8.8-5.4-12.1-9.5c-3.2-4.1-5.7-9.2-7.2-15.1c-1.6-6-2.4-12.7-2.4-20.2c0-6.6,1-12.8,3-18.6
			c2-5.8,4.7-10.8,8.3-15.1c3.5-4.3,7.6-7.7,12.3-10.1C579,504.8,584.1,503.6,589.6,503.6z M590.3,586.7c2.5,0,5-0.6,7.4-1.9
			c2.5-1.3,4.7-3.4,6.6-6.3c1.9-2.9,3.5-6.5,4.7-10.9c1.2-4.4,1.7-9.7,1.7-16c0-6.2-0.6-11.6-1.9-16.1c-1.3-4.5-3-8.2-5-11
			c-2-2.8-4.4-4.9-6.9-6.3c-2.6-1.3-5.1-2-7.6-2c-2.5,0-4.9,0.7-7.2,2c-2.3,1.3-4.4,3.4-6.1,6.3c-1.8,2.8-3.2,6.5-4.2,11
			c-1.1,4.5-1.6,9.8-1.6,16.1c0,6.3,0.6,11.7,1.7,16c1.2,4.4,2.7,8,4.7,10.9c1.9,2.9,4.1,5,6.5,6.3
			C585.3,586.1,587.8,586.7,590.3,586.7z"/>
		<path class="st1" d="M681.7,503.6c5.4,0,10.4,1.2,15.1,3.7c4.7,2.5,8.8,5.8,12.3,10.1c3.5,4.3,6.2,9.4,8.3,15.1
			c2,5.8,3.1,12,3.1,18.6c0,7.5-0.8,14.2-2.4,20.2c-1.6,6-4,11-7.2,15.1c-3.2,4.1-7.3,7.3-12.2,9.5c-4.9,2.2-10.5,3.3-17,3.3
			c-6.6,0-12.3-1.1-17.1-3.3c-4.8-2.2-8.8-5.4-12.1-9.5c-3.2-4.1-5.7-9.2-7.2-15.1c-1.6-6-2.4-12.7-2.4-20.2c0-6.6,1-12.8,3-18.6
			c2-5.8,4.7-10.8,8.3-15.1c3.5-4.3,7.6-7.7,12.3-10.1C671.2,504.8,676.2,503.6,681.7,503.6z M682.4,586.7c2.5,0,5-0.6,7.4-1.9
			c2.5-1.3,4.7-3.4,6.6-6.3c1.9-2.9,3.5-6.5,4.7-10.9c1.2-4.4,1.7-9.7,1.7-16c0-6.2-0.6-11.6-1.9-16.1c-1.3-4.5-3-8.2-5-11
			c-2-2.8-4.4-4.9-6.9-6.3c-2.6-1.3-5.1-2-7.6-2c-2.5,0-4.9,0.7-7.2,2c-2.3,1.3-4.4,3.4-6.1,6.3c-1.8,2.8-3.2,6.5-4.2,11
			c-1.1,4.5-1.6,9.8-1.6,16.1c0,6.3,0.6,11.7,1.7,16c1.2,4.4,2.7,8,4.7,10.9c1.9,2.9,4.1,5,6.5,6.3
			C677.4,586.1,679.9,586.7,682.4,586.7z"/>
		<path class="st1" d="M793,583v14.7h-39.2h-1.3h-15.7v-89.9l17-4.3V583H793z"/>
	</g>
</g>
<g>
	<path class="st1" d="M464.8,724.8c14.1,4.9,32.9,11,51.6,18.1c10.4,3.9,20.7,8.4,30.3,15c6.6,4,11.9,9.6,14.3,16.9
		c0.3,2.2,0.6,4.4,0.4,6c-0.5,4.3-3.2,8.9-7.3,11.1c-0.6,0.5-1.7,0.9-2.8,0.8c-0.9-1.2-1.4-2.3-1.8-3.5c0.1-1.1,1.3-1.5,1.4-2.6
		c0.9-3.2,2.8-5.6,3.1-7.8c0.8-6.4-3.6-10.8-8.7-13.5c-9.5-6.6-19.2-12.1-30.7-16.1c-15.2-5.1-29.2-10-44.9-15.1
		c-11.5-3.5-23.7-6.1-36.5-8.7c-8.4-2.1-17.5-3.7-26-5.2c-1.1-0.1-1.6-0.2-2.1-0.3c-2.7-0.3-4.9,0-7.7,0.7l-61.4,18.8
		C302.6,750.1,268,758,232.8,762c-13.2,1.2-25.3,2.4-37.6,1c-1.6-0.2-3.2-0.4-4.3-0.5c-7-0.8-13.8-2.7-19.4-5.6
		c-9.3-3.8-13.3-11.4-12.6-17.8c0.5-4.3,2-7.4,5.7-11.3l4.8-3.8c7-4.1,12.9-7.7,20.3-10.6c8.5-3.3,17.6-6.1,26.4-7.7
		c8.8-1.1,16.2-3.5,24.4-4.2c14.9-2,30.2-2.9,44.4-3.4c13-0.1,25.4,0.8,38.4,1.3c11.9,0.9,23.2,1.1,35,2.5c7,0.8,13.9,2.2,20.2,3.5
		c1.6,0.2,2.1,0.3,3.2,0.4c3.2,0.4,6.5,0.2,9.9-1l70.8-24.2c1.1-0.4,2.8-0.8,4.5-1.6c0.5,0.1,1.2-0.9,1.3-1.5
		c-0.5-0.6-0.5-0.6-1-0.7c-9.5-2.2-18.5-4.4-27.5-6c-21.4-3.1-42.1-7.2-63.3-11.3c-13.2-3.2-26.1-4.7-38.8-7.3
		c-3.7-1-7.4-1.4-11.7-1.9c-4.8-0.6-9.6-1.1-15-1.8c-2.1-0.3-5.4-0.6-7.5-0.9c-3.7-0.4-7-0.8-10.2-1.2c-7.5-0.9-14.5-1.7-20.9-2.5
		l-26-0.4c-1.7,0.3-2.7,0.2-3.8,0.1c-1.1-0.1-2.7-0.3-3.8-0.4c-1.6-0.2-3.2-0.4-5.4-0.1c-7.2,1.3-14.2,1-21.2,0.2
		c-0.5-0.1-1.1-0.1-1.6-0.2c-3.8-0.4-8.2,0.1-11.5,0.8c-9.4,1.1-18.8,2.7-28.2,4.3c-2.7,0.2-6.6,0.8-10,1.5
		c-11.2,3-22.4,6-33.3,10.2c-7.3,1.9-13.7,6-21.2,9.4c-4,1.7-8.7,4.4-12.3,7.8c-3.1,3.4-7.3,6.7-8.9,10.9c-0.8,2.1-2.7,4.6-4.5,6
		c-0.7,1-2.9,1.8-4.5,1.6l-0.5-0.1c-1.6-0.2-2-1.9-2.4-3c-0.8-2.3-1-5-0.8-7.2c0.8-6.4,4.6-11.4,10.1-16.2
		c8.5-7.7,18.3-12.5,29.3-17.7c13.7-5.4,26.8-10.4,42.3-12.9c4.9-0.5,10.6-2.5,15.6-3.6c6.1-1.4,12.2-1.8,18.2-2.2
		c6-0.4,11.5-0.8,17.1-2.3c4.6-2.2,10.5-1.5,15.3-0.9c1.6,0.2,2.7,0.3,3.8,0.4c1.6,0.2,3.8,0.4,5.5-0.4c0.7-1,2.8-0.8,3.9-0.6l27,1
		c11.3,1.3,23.6,2.3,35.5,2.6c2.1,0.3,5.3,1.2,8,1.5l4.3,0.5c1.6,0.2,2.2-0.3,2.7-0.2l0.5,0.1c2.1,0.8,5.2,1.7,7.4,2
		c3.2,0.4,6.4,0.8,9.1,1.1c1.6,0.2,3.2,0.4,4.8,0.6c1.1,0.1,2.7,0.3,3.8,0.4c2.1,0.3,4.3,0.5,6.4,0.8c0.5,0.1,1.7-0.3,3.3-0.2
		c2,1.3,4.7,1.6,6.8,1.9c1.6,0.2,4.3,0.5,6.4,0.8c1.6,0.2,2.1,0.3,3.2,0.4l45.7,8.7c2.6,0.9,5.3,1.2,8,1.5c2.1,0.3,3.3-0.2,4.9,0
		c14.6,5.5,29.7,6.2,44.5,9.6l29.1,6.2c0.5,0.1,0.5,0.1,1.1,0.1c3.2,0.4,5.5-0.4,7.8-1.3l23.7-7.5c24.9-8.5,50.8-16.3,76.6-23
		c21.8-5,44-9.5,67.7-12.1c18.7-1.6,37.8-2.6,56-0.4c1.6,0.2,3.2,0.4,4.3,0.5c12.9,1.5,24.5,4,35.3,9.6c9.2,4.9,16.1,10.6,18.9,19.6
		c1.8,3.5,1.9,7.3,1.5,10c-0.6,5.4-3.3,9.4-7,13.3c-8,8.3-17.5,14.8-29.4,18.8c-8.5,2.8-17.6,6.1-26.3,6.7c-11.6,1.3-22.7,3.3-34,3
		c-6.4-0.8-13,0.1-20.6-0.3c-8.2,0.1-16.9,0.2-26-0.9c-5.4-0.1-11.3-0.8-16.7-1.4c-5.4-0.6-10.7-1.3-16.1-1.9
		c-2.1-0.3-3.8-0.4-5.4-0.6c-4.8-0.6-9.1-1.1-13.9-1.6c-2.1-0.3-4.8-0.6-7-0.8l-9.6-1.1l-44.1-8.5l-12.9-1.5
		c-3.7-1-7.4-1.4-10.7-1.8c-2.7-0.3-4.9,0-7.7,0.7l-58.8,19.7l-18.2,7.1c-0.5-0.1-0.6,0.5-1.2,0.9l1.5,1.3L464.8,724.8z
		 M182.2,748.9l15.5,1.8c13,0.5,26.1-0.2,38.8-1.9c19.3-2.6,38.4-7.4,57.4-12.2c22.4-6,44.5-13.2,66.6-20.9l1.7-0.9
		c0,0,1.2-0.9,1.3-1.5c0,0-1-0.7-1.5-0.7c-1.1-0.1-2.6-0.9-4.8-1.1c-8.6-1-18.2-2.2-27.9-2.8c-12.4-0.9-24.7-2.4-37.3-1.7
		c-14.1,0-28.2-0.6-41.9,1c-17.1,2.3-34.8,4.6-51.3,10.8c-2.8,0.8-6.3,2.5-9.1,3.3c-9,2.7-14.1,8.7-18.6,14.6
		c-0.6,0.5-0.7,1.5-0.8,2.1c-0.3,2.7,1.1,4.5,3.1,5.8L182.2,748.9z M771.8,664.4c0.1-1.1,0.3-2.7,0.4-3.8c0.3-2.7,0.1-5.4-2.3-7.9
		c-5.4-5-11.5-8.4-18.8-10.9c-6.3-1.8-12.1-3.1-18.6-3.8c-7.5-0.9-15.1-1.2-22.7-1.1c-25.5-0.3-49.9,3.9-74.4,9.1
		c-29.5,6.3-58.3,14.8-86.5,24l-12.4,3.4c-0.6,0.5-1.2,0.9-1.3,1.5c0.5,0.1,1,0.7,1.5,1.3l31.4,5.9c11.2,1.9,21.8,4.2,32.5,5.5
		c2.1,0.3,3.8,0.4,5.9,0.7c10.2,1.2,19.8,2.3,31.1,3.1c17.2,1.5,34.4,3,51.9,2.3c7.6-0.2,15.8-0.3,22.9-1.1
		c4.5-1.1,9.4-1.1,13.8-2.2c6.7-1.9,13-3.9,19.2-5.9c9.1-3.8,17.2-7.7,23-15.7L771.8,664.4z"/>
</g>
<g>
	<path class="st0" d="M395.7,139.2c-14.1-4.9-32.9-11-51.6-18.1c-10.4-3.9-20.7-8.4-30.3-15c-6.6-4-11.9-9.6-14.3-16.9
		c-0.3-2.2-0.6-4.4-0.4-6c0.5-4.3,3.2-8.9,7.3-11.1c0.6-0.5,1.7-0.9,2.8-0.8c0.9,1.2,1.4,2.3,1.8,3.5c-0.1,1.1-1.3,1.5-1.4,2.6
		c-0.9,3.2-2.8,5.6-3.1,7.8c-0.8,6.4,3.6,10.8,8.7,13.5c9.5,6.6,19.2,12.1,30.7,16.1c15.2,5.1,29.2,10,44.9,15.1
		c11.5,3.5,23.7,6.1,36.5,8.7c8.4,2.1,17.5,3.7,26,5.2c1.1,0.1,1.6,0.2,2.1,0.3c2.7,0.3,4.9,0,7.7-0.7l61.4-18.8
		c33.3-10.7,67.9-18.6,103.2-22.6c13.2-1.2,25.3-2.4,37.6-1c1.6,0.2,3.2,0.4,4.3,0.5c7,0.8,13.8,2.7,19.4,5.6
		c9.3,3.8,13.3,11.4,12.6,17.8c-0.5,4.3-2,7.4-5.7,11.3l-4.8,3.8c-7,4.1-12.9,7.7-20.3,10.6c-8.5,3.3-17.6,6.1-26.4,7.7
		c-8.8,1.1-16.2,3.5-24.4,4.2c-14.9,2-30.2,2.9-44.4,3.4c-13,0.1-25.4-0.8-38.4-1.3c-11.9-0.9-23.2-1.1-35-2.5
		c-7-0.8-13.9-2.2-20.2-3.5c-1.6-0.2-2.1-0.3-3.2-0.4c-3.2-0.4-6.5-0.2-9.9,1L398,183.5c-1.1,0.4-2.8,0.8-4.5,1.6
		c-0.5-0.1-1.2,0.9-1.3,1.5c0.5,0.6,0.5,0.6,1,0.7c9.5,2.2,18.5,4.4,27.5,6c21.4,3.1,42.1,7.2,63.3,11.3c13.2,3.2,26.1,4.7,38.8,7.3
		c3.7,1,7.4,1.4,11.7,1.9c4.8,0.6,9.6,1.1,15,1.8c2.1,0.3,5.4,0.6,7.5,0.9c3.7,0.4,7,0.8,10.2,1.2c7.5,0.9,14.5,1.7,20.9,2.5l26,0.4
		c1.7-0.3,2.7-0.2,3.8-0.1c1.1,0.1,2.7,0.3,3.8,0.4c1.6,0.2,3.2,0.4,5.4,0.1c7.2-1.3,14.2-1,21.2-0.2c0.5,0.1,1.1,0.1,1.6,0.2
		c3.8,0.4,8.2-0.1,11.5-0.8c9.4-1.1,18.8-2.7,28.2-4.3c2.7-0.2,6.6-0.8,10-1.5c11.2-3,22.4-6,33.3-10.2c7.3-1.9,13.7-6,21.2-9.4
		c4-1.7,8.7-4.4,12.3-7.8c3.1-3.4,7.3-6.7,8.9-10.9c0.8-2.1,2.7-4.6,4.5-6c0.7-1,2.9-1.8,4.5-1.6l0.5,0.1c1.6,0.2,2,1.9,2.4,3
		c0.8,2.3,1,5,0.8,7.2c-0.8,6.4-4.6,11.4-10.1,16.2c-8.5,7.7-18.3,12.5-29.3,17.7c-13.7,5.4-26.8,10.4-42.3,12.9
		c-4.9,0.5-10.6,2.5-15.6,3.6c-6.1,1.4-12.2,1.8-18.2,2.2c-6,0.4-11.5,0.8-17.1,2.3c-4.6,2.2-10.5,1.5-15.3,0.9
		c-1.6-0.2-2.7-0.3-3.8-0.4c-1.6-0.2-3.8-0.4-5.5,0.4c-0.7,1-2.8,0.8-3.9,0.6l-27-1c-11.3-1.3-23.6-2.3-35.5-2.6
		c-2.1-0.3-5.3-1.2-8-1.5l-4.3-0.5c-1.6-0.2-2.2,0.3-2.7,0.2l-0.5-0.1c-2.1-0.8-5.2-1.7-7.4-2c-3.2-0.4-6.4-0.8-9.1-1.1
		c-1.6-0.2-3.2-0.4-4.8-0.6c-1.1-0.1-2.7-0.3-3.8-0.4c-2.1-0.3-4.3-0.5-6.4-0.8c-0.5-0.1-1.7,0.3-3.3,0.2c-2-1.3-4.7-1.6-6.8-1.9
		c-1.6-0.2-4.3-0.5-6.4-0.8c-1.6-0.2-2.1-0.3-3.2-0.4l-45.7-8.7c-2.6-0.9-5.3-1.2-8-1.5c-2.1-0.3-3.3,0.2-4.9,0
		c-14.6-5.5-29.7-6.2-44.5-9.6l-29.1-6.2c-0.5-0.1-0.5-0.1-1.1-0.1c-3.2-0.4-5.5,0.4-7.8,1.3l-23.7,7.5c-24.9,8.5-50.8,16.3-76.6,23
		c-21.8,5-44,9.5-67.7,12.1c-18.7,1.6-37.8,2.6-56,0.4c-1.6-0.2-3.2-0.4-4.3-0.5c-12.9-1.5-24.5-4-35.3-9.6
		c-9.2-4.9-16.1-10.6-18.9-19.6c-1.8-3.5-1.9-7.3-1.5-10c0.6-5.4,3.3-9.4,7-13.3c8-8.3,17.5-14.8,29.4-18.8
		c8.5-2.8,17.6-6.1,26.3-6.7c11.6-1.3,22.7-3.3,34-3c6.4,0.8,13-0.1,20.6,0.3c8.2-0.1,16.9-0.2,26,0.9c5.4,0.1,11.3,0.8,16.7,1.4
		c5.4,0.6,10.7,1.3,16.1,1.9c2.1,0.3,3.8,0.4,5.4,0.6c4.8,0.6,9.1,1.1,13.9,1.6c2.1,0.3,4.8,0.6,7,0.8l9.6,1.1l44.1,8.5l12.9,1.5
		c3.7,1,7.4,1.4,10.7,1.8c2.7,0.3,4.9,0,7.7-0.7l58.8-19.7l18.2-7.1c0.5,0.1,0.6-0.5,1.2-0.9l-1.5-1.3L395.7,139.2z M678.3,115.1
		l-15.5-1.8c-13-0.5-26.1,0.2-38.8,1.9c-19.3,2.6-38.4,7.4-57.4,12.2c-22.4,6-44.5,13.2-66.6,20.9l-1.7,0.9c0,0-1.2,0.9-1.3,1.5
		c0,0,1,0.7,1.5,0.7c1.1,0.1,2.6,0.9,4.8,1.1c8.6,1,18.2,2.2,27.9,2.8c12.4,0.9,24.7,2.4,37.3,1.7c14.1,0,28.2,0.6,41.9-1
		c17.1-2.3,34.8-4.6,51.3-10.8c2.8-0.8,6.3-2.5,9.1-3.3c9-2.7,14.1-8.7,18.6-14.6c0.6-0.5,0.7-1.5,0.8-2.1c0.3-2.7-1.1-4.5-3.1-5.8
		L678.3,115.1z M88.6,199.6c-0.1,1.1-0.3,2.7-0.4,3.8c-0.3,2.7-0.1,5.4,2.3,7.9c5.4,5,11.5,8.4,18.8,10.9c6.3,1.8,12.1,3.1,18.6,3.8
		c7.5,0.9,15.1,1.2,22.7,1.1c25.5,0.3,49.9-3.9,74.4-9.1c29.5-6.3,58.3-14.8,86.5-24l12.4-3.4c0.6-0.5,1.2-0.9,1.3-1.5
		c-0.5-0.1-1-0.7-1.5-1.3l-31.4-5.9c-11.2-1.9-21.8-4.2-32.5-5.5c-2.1-0.3-3.8-0.4-5.9-0.7c-10.2-1.2-19.8-2.3-31.1-3.1
		c-17.2-1.5-34.4-3-51.9-2.3c-7.6,0.2-15.8,0.3-22.9,1.1c-4.5,1.1-9.4,1.1-13.8,2.2c-6.7,1.9-13,3.9-19.2,5.9
		c-9.1,3.8-17.2,7.7-23,15.7L88.6,199.6z"/>
</g>
</svg>
